<svg xmlns="http://www.w3.org/2000/svg" xmlns:xlink="http://www.w3.org/1999/xlink" width="280" zoomAndPan="magnify" viewBox="0 0 210 30.000001" height="40" preserveAspectRatio="xMidYMid meet" version="1.0"><defs><g/><clipPath id="14788b08ac"><path d="M 7.691406 0.871094 L 35.273438 0.871094 L 35.273438 16 L 7.691406 16 Z M 7.691406 0.871094 " clip-rule="nonzero"/></clipPath><clipPath id="34daef8931"><path d="M 14 15 L 22 15 L 22 28.453125 L 14 28.453125 Z M 14 15 " clip-rule="nonzero"/></clipPath></defs><g clip-path="url(#14788b08ac)"><path fill="#003d2b" d="M 31.628906 13.691406 C 30.644531 13.691406 29.714844 13.792969 29.003906 13.96875 C 28.695312 14.046875 28.429688 14.140625 28.207031 14.25 C 27.988281 14.140625 27.722656 14.046875 27.414062 13.96875 C 26.703125 13.792969 25.769531 13.691406 24.789062 13.691406 C 23.808594 13.691406 22.875 13.792969 22.164062 13.96875 C 21.855469 14.046875 21.59375 14.140625 21.371094 14.25 C 21.148438 14.140625 20.882812 14.046875 20.574219 13.96875 C 19.863281 13.792969 18.933594 13.691406 17.949219 13.691406 C 16.96875 13.691406 16.039062 13.792969 15.324219 13.96875 C 15.019531 14.046875 14.753906 14.140625 14.53125 14.25 C 14.308594 14.140625 14.042969 14.046875 13.738281 13.96875 C 13.027344 13.792969 12.09375 13.691406 11.113281 13.691406 C 10.195312 13.691406 9.320312 13.777344 8.628906 13.933594 C 8.957031 11.066406 10.230469 8.410156 12.304688 6.335938 C 14.726562 3.914062 17.945312 2.582031 21.371094 2.582031 C 24.796875 2.582031 28.015625 3.914062 30.4375 6.335938 C 32.507812 8.410156 33.785156 11.066406 34.109375 13.933594 C 33.417969 13.777344 32.542969 13.691406 31.628906 13.691406 Z M 21.796875 1.734375 L 21.796875 1.296875 C 21.796875 1.0625 21.605469 0.871094 21.371094 0.871094 C 21.132812 0.871094 20.941406 1.0625 20.941406 1.296875 L 20.941406 1.734375 C 13.585938 1.960938 7.691406 7.992188 7.691406 15.402344 C 7.691406 14.929688 9.222656 14.546875 11.113281 14.546875 C 13 14.546875 14.53125 14.929688 14.53125 15.402344 C 14.53125 14.929688 16.0625 14.546875 17.949219 14.546875 C 19.839844 14.546875 21.371094 14.929688 21.371094 15.402344 C 21.371094 14.929688 22.902344 14.546875 24.789062 14.546875 C 26.675781 14.546875 28.207031 14.929688 28.207031 15.402344 C 28.207031 14.929688 29.738281 14.546875 31.628906 14.546875 C 33.515625 14.546875 35.046875 14.929688 35.046875 15.402344 C 35.046875 7.992188 29.152344 1.960938 21.796875 1.734375 " fill-opacity="1" fill-rule="nonzero"/></g><g clip-path="url(#34daef8931)"><path fill="#003d2b" d="M 21.371094 15.832031 C 21.132812 15.832031 20.941406 16.019531 20.941406 16.257812 L 20.941406 24.804688 C 20.941406 26.21875 19.792969 27.371094 18.378906 27.371094 C 16.964844 27.371094 15.8125 26.21875 15.8125 24.804688 C 15.8125 24.570312 15.621094 24.378906 15.386719 24.378906 C 15.148438 24.378906 14.957031 24.570312 14.957031 24.804688 C 14.957031 26.691406 16.492188 28.226562 18.378906 28.226562 C 20.261719 28.226562 21.796875 26.691406 21.796875 24.804688 L 21.796875 16.257812 C 21.796875 16.019531 21.605469 15.832031 21.371094 15.832031 " fill-opacity="1" fill-rule="nonzero"/></g><path fill="#003d2b" d="M 25.214844 6.855469 L 25.214844 9.417969 L 22.652344 9.417969 L 22.652344 11.984375 L 20.085938 11.984375 L 20.085938 9.417969 L 17.523438 9.417969 L 17.523438 6.855469 L 20.085938 6.855469 L 20.085938 4.289062 L 22.652344 4.289062 L 22.652344 6.855469 Z M 23.507812 3.433594 L 19.234375 3.433594 L 19.234375 6 L 16.667969 6 L 16.667969 10.273438 L 19.234375 10.273438 L 19.234375 12.839844 L 23.507812 12.839844 L 23.507812 10.273438 L 26.070312 10.273438 L 26.070312 6 L 23.507812 6 L 23.507812 3.433594 " fill-opacity="1" fill-rule="nonzero"/><g fill="#e5f38d" fill-opacity="1"><g transform="translate(42.416134, 22.188029)"><g><path d="M 12.796875 -3.671875 L 5.265625 -3.671875 L 3.96875 0 L 0.875 0 L 7.328125 -18.03125 L 10.75 -18.03125 L 17.203125 0 L 14.09375 0 Z M 11.96875 -6.09375 L 9.046875 -14.453125 L 6.09375 -6.09375 Z M 11.96875 -6.09375 "/></g></g></g><g fill="#003d2b" fill-opacity="1"><g transform="translate(60.470569, 22.188029)"><g><path d="M 7.125 0.234375 C 6 0.234375 4.988281 0.03125 4.09375 -0.375 C 3.207031 -0.78125 2.503906 -1.332031 1.984375 -2.03125 C 1.472656 -2.726562 1.203125 -3.507812 1.171875 -4.375 L 4.21875 -4.375 C 4.269531 -3.769531 4.554688 -3.265625 5.078125 -2.859375 C 5.609375 -2.453125 6.273438 -2.25 7.078125 -2.25 C 7.898438 -2.25 8.539062 -2.410156 9 -2.734375 C 9.457031 -3.054688 9.6875 -3.46875 9.6875 -3.96875 C 9.6875 -4.5 9.429688 -4.894531 8.921875 -5.15625 C 8.410156 -5.414062 7.601562 -5.703125 6.5 -6.015625 C 5.425781 -6.304688 4.550781 -6.585938 3.875 -6.859375 C 3.207031 -7.140625 2.628906 -7.5625 2.140625 -8.125 C 1.648438 -8.695312 1.40625 -9.453125 1.40625 -10.390625 C 1.40625 -11.148438 1.628906 -11.84375 2.078125 -12.46875 C 2.523438 -13.101562 3.164062 -13.597656 4 -13.953125 C 4.84375 -14.316406 5.804688 -14.5 6.890625 -14.5 C 8.515625 -14.5 9.820312 -14.085938 10.8125 -13.265625 C 11.8125 -12.453125 12.34375 -11.335938 12.40625 -9.921875 L 9.453125 -9.921875 C 9.398438 -10.554688 9.140625 -11.0625 8.671875 -11.4375 C 8.210938 -11.820312 7.582031 -12.015625 6.78125 -12.015625 C 6.007812 -12.015625 5.414062 -11.867188 5 -11.578125 C 4.582031 -11.285156 4.375 -10.898438 4.375 -10.421875 C 4.375 -10.035156 4.507812 -9.710938 4.78125 -9.453125 C 5.0625 -9.191406 5.398438 -8.988281 5.796875 -8.84375 C 6.203125 -8.695312 6.789062 -8.515625 7.5625 -8.296875 C 8.601562 -8.015625 9.453125 -7.726562 10.109375 -7.4375 C 10.773438 -7.15625 11.347656 -6.738281 11.828125 -6.1875 C 12.316406 -5.632812 12.570312 -4.898438 12.59375 -3.984375 C 12.59375 -3.171875 12.367188 -2.445312 11.921875 -1.8125 C 11.472656 -1.175781 10.835938 -0.675781 10.015625 -0.3125 C 9.191406 0.0507812 8.226562 0.234375 7.125 0.234375 Z M 7.125 0.234375 "/></g></g></g><g fill="#003d2b" fill-opacity="1"><g transform="translate(74.302333, 22.188029)"><g><path d="M 7.125 0.234375 C 6 0.234375 4.988281 0.03125 4.09375 -0.375 C 3.207031 -0.78125 2.503906 -1.332031 1.984375 -2.03125 C 1.472656 -2.726562 1.203125 -3.507812 1.171875 -4.375 L 4.21875 -4.375 C 4.269531 -3.769531 4.554688 -3.265625 5.078125 -2.859375 C 5.609375 -2.453125 6.273438 -2.25 7.078125 -2.25 C 7.898438 -2.25 8.539062 -2.410156 9 -2.734375 C 9.457031 -3.054688 9.6875 -3.46875 9.6875 -3.96875 C 9.6875 -4.5 9.429688 -4.894531 8.921875 -5.15625 C 8.410156 -5.414062 7.601562 -5.703125 6.5 -6.015625 C 5.425781 -6.304688 4.550781 -6.585938 3.875 -6.859375 C 3.207031 -7.140625 2.628906 -7.5625 2.140625 -8.125 C 1.648438 -8.695312 1.40625 -9.453125 1.40625 -10.390625 C 1.40625 -11.148438 1.628906 -11.84375 2.078125 -12.46875 C 2.523438 -13.101562 3.164062 -13.597656 4 -13.953125 C 4.84375 -14.316406 5.804688 -14.5 6.890625 -14.5 C 8.515625 -14.5 9.820312 -14.085938 10.8125 -13.265625 C 11.8125 -12.453125 12.34375 -11.335938 12.40625 -9.921875 L 9.453125 -9.921875 C 9.398438 -10.554688 9.140625 -11.0625 8.671875 -11.4375 C 8.210938 -11.820312 7.582031 -12.015625 6.78125 -12.015625 C 6.007812 -12.015625 5.414062 -11.867188 5 -11.578125 C 4.582031 -11.285156 4.375 -10.898438 4.375 -10.421875 C 4.375 -10.035156 4.507812 -9.710938 4.78125 -9.453125 C 5.0625 -9.191406 5.398438 -8.988281 5.796875 -8.84375 C 6.203125 -8.695312 6.789062 -8.515625 7.5625 -8.296875 C 8.601562 -8.015625 9.453125 -7.726562 10.109375 -7.4375 C 10.773438 -7.15625 11.347656 -6.738281 11.828125 -6.1875 C 12.316406 -5.632812 12.570312 -4.898438 12.59375 -3.984375 C 12.59375 -3.171875 12.367188 -2.445312 11.921875 -1.8125 C 11.472656 -1.175781 10.835938 -0.675781 10.015625 -0.3125 C 9.191406 0.0507812 8.226562 0.234375 7.125 0.234375 Z M 7.125 0.234375 "/></g></g></g><g fill="#003d2b" fill-opacity="1"><g transform="translate(88.134098, 22.188029)"><g><path d="M 14.875 -14.28125 L 14.875 0 L 11.921875 0 L 11.921875 -1.6875 C 11.453125 -1.09375 10.84375 -0.628906 10.09375 -0.296875 C 9.34375 0.0351562 8.539062 0.203125 7.6875 0.203125 C 6.570312 0.203125 5.566406 -0.0234375 4.671875 -0.484375 C 3.785156 -0.953125 3.085938 -1.644531 2.578125 -2.5625 C 2.066406 -3.476562 1.8125 -4.582031 1.8125 -5.875 L 1.8125 -14.28125 L 4.734375 -14.28125 L 4.734375 -6.328125 C 4.734375 -5.046875 5.050781 -4.0625 5.6875 -3.375 C 6.332031 -2.695312 7.207031 -2.359375 8.3125 -2.359375 C 9.414062 -2.359375 10.289062 -2.695312 10.9375 -3.375 C 11.59375 -4.0625 11.921875 -5.046875 11.921875 -6.328125 L 11.921875 -14.28125 Z M 14.875 -14.28125 "/></g></g></g><g fill="#003d2b" fill-opacity="1"><g transform="translate(104.944609, 22.188029)"><g><path d="M 4.890625 -12.203125 C 5.328125 -12.929688 5.898438 -13.492188 6.609375 -13.890625 C 7.328125 -14.296875 8.179688 -14.5 9.171875 -14.5 L 9.171875 -11.453125 L 8.421875 -11.453125 C 7.265625 -11.453125 6.382812 -11.15625 5.78125 -10.5625 C 5.1875 -9.976562 4.890625 -8.960938 4.890625 -7.515625 L 4.890625 0 L 1.9375 0 L 1.9375 -14.28125 L 4.890625 -14.28125 Z M 4.890625 -12.203125 "/></g></g></g><g fill="#e5f38d" fill-opacity="1"><g transform="translate(114.894712, 22.188029)"><g><path d="M 7.875 0.1875 C 6.664062 0.1875 5.578125 -0.0234375 4.609375 -0.453125 C 3.640625 -0.878906 2.878906 -1.476562 2.328125 -2.25 C 1.773438 -3.03125 1.5 -3.9375 1.5 -4.96875 L 4.65625 -4.96875 C 4.726562 -4.195312 5.035156 -3.5625 5.578125 -3.0625 C 6.128906 -2.5625 6.894531 -2.3125 7.875 -2.3125 C 8.894531 -2.3125 9.6875 -2.554688 10.25 -3.046875 C 10.820312 -3.535156 11.109375 -4.171875 11.109375 -4.953125 C 11.109375 -5.554688 10.929688 -6.046875 10.578125 -6.421875 C 10.222656 -6.804688 9.78125 -7.097656 9.25 -7.296875 C 8.726562 -7.503906 8.003906 -7.734375 7.078125 -7.984375 C 5.898438 -8.296875 4.941406 -8.609375 4.203125 -8.921875 C 3.472656 -9.242188 2.847656 -9.738281 2.328125 -10.40625 C 1.804688 -11.082031 1.546875 -11.984375 1.546875 -13.109375 C 1.546875 -14.140625 1.804688 -15.046875 2.328125 -15.828125 C 2.847656 -16.609375 3.570312 -17.203125 4.5 -17.609375 C 5.4375 -18.023438 6.519531 -18.234375 7.75 -18.234375 C 9.488281 -18.234375 10.914062 -17.796875 12.03125 -16.921875 C 13.144531 -16.054688 13.765625 -14.863281 13.890625 -13.34375 L 10.625 -13.34375 C 10.570312 -14 10.257812 -14.554688 9.6875 -15.015625 C 9.113281 -15.484375 8.363281 -15.71875 7.4375 -15.71875 C 6.59375 -15.71875 5.898438 -15.503906 5.359375 -15.078125 C 4.828125 -14.648438 4.5625 -14.03125 4.5625 -13.21875 C 4.5625 -12.664062 4.726562 -12.210938 5.0625 -11.859375 C 5.394531 -11.503906 5.820312 -11.222656 6.34375 -11.015625 C 6.863281 -10.804688 7.570312 -10.582031 8.46875 -10.34375 C 9.664062 -10.007812 10.640625 -9.675781 11.390625 -9.34375 C 12.140625 -9.019531 12.773438 -8.515625 13.296875 -7.828125 C 13.828125 -7.148438 14.09375 -6.242188 14.09375 -5.109375 C 14.09375 -4.191406 13.84375 -3.328125 13.34375 -2.515625 C 12.851562 -1.703125 12.140625 -1.046875 11.203125 -0.546875 C 10.265625 -0.0546875 9.15625 0.1875 7.875 0.1875 Z M 7.875 0.1875 "/></g></g></g><g fill="#003d2b" fill-opacity="1"><g transform="translate(130.544913, 22.188029)"><g><path d="M 0.953125 -7.203125 C 0.953125 -8.640625 1.25 -9.910156 1.84375 -11.015625 C 2.445312 -12.117188 3.257812 -12.972656 4.28125 -13.578125 C 5.3125 -14.191406 6.445312 -14.5 7.6875 -14.5 C 8.8125 -14.5 9.789062 -14.28125 10.625 -13.84375 C 11.46875 -13.40625 12.140625 -12.859375 12.640625 -12.203125 L 12.640625 -14.28125 L 15.625 -14.28125 L 15.625 0 L 12.640625 0 L 12.640625 -2.125 C 12.140625 -1.445312 11.457031 -0.882812 10.59375 -0.4375 C 9.726562 0.0078125 8.742188 0.234375 7.640625 0.234375 C 6.410156 0.234375 5.285156 -0.078125 4.265625 -0.703125 C 3.253906 -1.335938 2.445312 -2.21875 1.84375 -3.34375 C 1.25 -4.476562 0.953125 -5.765625 0.953125 -7.203125 Z M 12.640625 -7.15625 C 12.640625 -8.132812 12.4375 -8.984375 12.03125 -9.703125 C 11.625 -10.429688 11.09375 -10.984375 10.4375 -11.359375 C 9.78125 -11.742188 9.070312 -11.9375 8.3125 -11.9375 C 7.550781 -11.9375 6.84375 -11.75 6.1875 -11.375 C 5.53125 -11.007812 5 -10.46875 4.59375 -9.75 C 4.1875 -9.03125 3.984375 -8.179688 3.984375 -7.203125 C 3.984375 -6.210938 4.1875 -5.347656 4.59375 -4.609375 C 5 -3.867188 5.535156 -3.300781 6.203125 -2.90625 C 6.867188 -2.519531 7.570312 -2.328125 8.3125 -2.328125 C 9.070312 -2.328125 9.78125 -2.515625 10.4375 -2.890625 C 11.09375 -3.273438 11.625 -3.832031 12.03125 -4.5625 C 12.4375 -5.300781 12.640625 -6.164062 12.640625 -7.15625 Z M 12.640625 -7.15625 "/></g></g></g><g fill="#003d2b" fill-opacity="1"><g transform="translate(148.106592, 22.188029)"><g><path d="M 9.140625 -14.5 C 10.265625 -14.5 11.269531 -14.265625 12.15625 -13.796875 C 13.050781 -13.335938 13.75 -12.648438 14.25 -11.734375 C 14.75 -10.816406 15 -9.710938 15 -8.421875 L 15 0 L 12.078125 0 L 12.078125 -7.984375 C 12.078125 -9.253906 11.753906 -10.226562 11.109375 -10.90625 C 10.472656 -11.59375 9.601562 -11.9375 8.5 -11.9375 C 7.394531 -11.9375 6.515625 -11.59375 5.859375 -10.90625 C 5.210938 -10.226562 4.890625 -9.253906 4.890625 -7.984375 L 4.890625 0 L 1.9375 0 L 1.9375 -14.28125 L 4.890625 -14.28125 L 4.890625 -12.640625 C 5.378906 -13.222656 6 -13.675781 6.75 -14 C 7.5 -14.332031 8.296875 -14.5 9.140625 -14.5 Z M 9.140625 -14.5 "/></g></g></g><g fill="#003d2b" fill-opacity="1"><g transform="translate(164.917102, 22.188029)"><g><path d="M 5.390625 -11.859375 L 5.390625 -3.96875 C 5.390625 -3.425781 5.515625 -3.039062 5.765625 -2.8125 C 6.015625 -2.582031 6.441406 -2.46875 7.046875 -2.46875 L 8.859375 -2.46875 L 8.859375 0 L 6.53125 0 C 5.195312 0 4.175781 -0.304688 3.46875 -0.921875 C 2.757812 -1.546875 2.40625 -2.5625 2.40625 -3.96875 L 2.40625 -11.859375 L 0.71875 -11.859375 L 0.71875 -14.28125 L 2.40625 -14.28125 L 2.40625 -17.828125 L 5.390625 -17.828125 L 5.390625 -14.28125 L 8.859375 -14.28125 L 8.859375 -11.859375 Z M 5.390625 -11.859375 "/></g></g></g><g fill="#003d2b" fill-opacity="1"><g transform="translate(174.55271, 22.188029)"><g><path d="M 15.03125 -7.484375 C 15.03125 -6.953125 14.992188 -6.46875 14.921875 -6.03125 L 4.015625 -6.03125 C 4.097656 -4.894531 4.519531 -3.976562 5.28125 -3.28125 C 6.039062 -2.59375 6.972656 -2.25 8.078125 -2.25 C 9.671875 -2.25 10.796875 -2.914062 11.453125 -4.25 L 14.640625 -4.25 C 14.203125 -2.9375 13.414062 -1.859375 12.28125 -1.015625 C 11.15625 -0.179688 9.753906 0.234375 8.078125 0.234375 C 6.710938 0.234375 5.488281 -0.0703125 4.40625 -0.6875 C 3.332031 -1.300781 2.488281 -2.164062 1.875 -3.28125 C 1.257812 -4.394531 0.953125 -5.6875 0.953125 -7.15625 C 0.953125 -8.625 1.25 -9.910156 1.84375 -11.015625 C 2.445312 -12.128906 3.285156 -12.988281 4.359375 -13.59375 C 5.441406 -14.195312 6.679688 -14.5 8.078125 -14.5 C 9.429688 -14.5 10.632812 -14.207031 11.6875 -13.625 C 12.738281 -13.039062 13.554688 -12.21875 14.140625 -11.15625 C 14.734375 -10.09375 15.03125 -8.867188 15.03125 -7.484375 Z M 11.9375 -8.421875 C 11.925781 -9.503906 11.539062 -10.375 10.78125 -11.03125 C 10.019531 -11.6875 9.078125 -12.015625 7.953125 -12.015625 C 6.929688 -12.015625 6.054688 -11.691406 5.328125 -11.046875 C 4.609375 -10.398438 4.179688 -9.523438 4.046875 -8.421875 Z M 10.671875 -18.109375 L 4.953125 -15.28125 L 4.953125 -17.453125 L 10.671875 -20.625 Z M 10.671875 -18.109375 "/></g></g></g></svg>