<svg xmlns="http://www.w3.org/2000/svg" xmlns:xlink="http://www.w3.org/1999/xlink" width="96" zoomAndPan="magnify" viewBox="0 0 72 72" height="96" preserveAspectRatio="xMidYMid meet" version="1.0"><defs><clipPath id="9b45f0bc9b"><path d="M 0.0976562 38.308594 L 71.910156 38.308594 L 71.910156 66.398438 L 0.0976562 66.398438 Z M 0.0976562 38.308594 " clip-rule="nonzero"/></clipPath><clipPath id="33105d989f"><path d="M 13 3 L 59.359375 3 L 59.359375 38.773438 L 13 38.773438 Z M 13 3 " clip-rule="nonzero"/></clipPath></defs><g clip-path="url(#9b45f0bc9b)"><path fill="#9c877e" d="M 71.570312 40.878906 C 70.449219 39.839844 67.683594 38.839844 61.210938 42.4375 C 58.410156 44.183594 56.890625 45.304688 56.125 45.925781 C 55.632812 46.320312 55.03125 46.558594 54.398438 46.601562 C 51.027344 46.835938 40.378906 47.859375 36.730469 47.789062 C 36.199219 47.777344 36.019531 47.058594 36.378906 46.78125 C 36.644531 46.570312 37.054688 46.46875 37.640625 46.285156 C 39.710938 45.640625 51.214844 45.691406 50.964844 41.390625 C 50.722656 37.261719 42.472656 38.785156 40.027344 39.304688 C 39.078125 39.507812 38.019531 39.667969 37.042969 39.785156 C 37.042969 39.785156 33.496094 39.941406 31.746094 39.523438 C 28.109375 38.570312 20.453125 37.027344 15.613281 40.949219 C 11.71875 44.105469 9.988281 46.183594 9.234375 47.320312 C 8.726562 48.085938 8.027344 48.707031 7.210938 49.132812 L 0.394531 53.929688 C 0.0351562 54.179688 -0.0078125 54.695312 0.304688 55.003906 L 7.902344 62.605469 L 11.488281 66.191406 C 11.792969 66.496094 12.300781 66.460938 12.554688 66.113281 C 14.09375 64.03125 19.597656 57.941406 31.070312 58.308594 C 44.894531 58.757812 44.980469 58.488281 48.015625 56.882812 C 50.394531 55.625 56.054688 53.597656 58.378906 52.78125 C 59.066406 52.542969 59.703125 52.183594 60.261719 51.726562 L 71.496094 42.5 C 72.015625 42.097656 72.050781 41.324219 71.570312 40.878906 " fill-opacity="1" fill-rule="nonzero"/></g><path fill="#9c877e" d="M 50.300781 38.152344 C 50.65625 38.351562 50.96875 38.585938 51.230469 38.847656 C 51.390625 39.007812 51.535156 39.183594 51.660156 39.367188 C 52.488281 38.972656 53.40625 38.558594 54.402344 38.128906 L 54.414062 38.125 C 56.910156 37.191406 59.0625 36.691406 60.820312 36.640625 C 60.246094 36.335938 59.527344 36.15625 58.675781 36.105469 C 56.875 35.996094 54.53125 36.476562 51.714844 37.53125 C 51.226562 37.742188 50.75 37.949219 50.300781 38.152344 " fill-opacity="1" fill-rule="nonzero"/><path fill="#9c877e" d="M 48.828125 45.324219 C 49.488281 45.273438 50.121094 45.222656 50.710938 45.179688 L 50.71875 45.175781 C 52.296875 45.054688 53.660156 44.949219 54.53125 44.894531 C 54.675781 44.882812 54.824219 44.855469 54.96875 44.804688 C 55.152344 44.742188 55.324219 44.648438 55.472656 44.53125 C 56.257812 43.894531 57.773438 42.78125 60.523438 41.078125 L 60.554688 41.0625 L 60.578125 41.046875 C 61.363281 40.613281 62.128906 40.230469 62.855469 39.90625 C 63.570312 39.597656 64.257812 39.347656 64.898438 39.160156 C 64.988281 39.136719 65.074219 39.109375 65.164062 39.085938 C 65.0625 38.996094 64.949219 38.914062 64.835938 38.835938 C 64.179688 38.40625 63.304688 38.171875 62.230469 38.136719 C 60.515625 38.078125 58.332031 38.535156 55.734375 39.492188 C 54.550781 40 53.484375 40.480469 52.558594 40.925781 C 52.5625 40.96875 52.566406 41.011719 52.566406 41.050781 C 52.691406 42.949219 51.433594 44.386719 48.828125 45.324219 " fill-opacity="1" fill-rule="nonzero"/><g clip-path="url(#33105d989f)"><path fill="#070707" d="M 33.714844 10.546875 C 34.167969 9.660156 34.484375 8.957031 34.875 8.296875 C 36.390625 5.714844 38.449219 3.789062 41.5 3.292969 C 43.988281 2.886719 46.398438 3.308594 48.640625 4.496094 C 51.601562 6.0625 53.304688 8.585938 53.976562 11.808594 C 54.515625 14.378906 54.222656 16.914062 53.398438 19.394531 C 53.304688 19.671875 53.179688 19.941406 53.054688 20.257812 C 49.429688 20.257812 45.828125 20.257812 42.097656 20.257812 C 41.839844 19.78125 41.535156 19.238281 41.25 18.683594 C 40.84375 17.890625 40.433594 17.097656 40.050781 16.289062 C 39.726562 15.605469 39.277344 15.054688 38.464844 15.109375 C 37.671875 15.160156 37.257812 15.695312 36.992188 16.433594 C 36.265625 18.460938 35.484375 20.472656 34.722656 22.488281 C 34.65625 22.660156 34.578125 22.828125 34.449219 23.140625 C 34.292969 22.839844 34.160156 22.648438 34.089844 22.4375 C 33.171875 19.6875 32.265625 16.933594 31.351562 14.183594 C 31.296875 14.007812 31.253906 13.824219 31.183594 13.652344 C 30.929688 13.015625 30.488281 12.574219 29.777344 12.566406 C 29.078125 12.5625 28.585938 12.925781 28.320312 13.585938 C 27.65625 15.238281 26.984375 16.894531 26.3125 18.546875 C 26.089844 19.09375 25.851562 19.640625 25.570312 20.3125 C 25.148438 20.3125 24.710938 20.308594 24.277344 20.3125 C 23.195312 20.3125 22.117188 20.285156 21.039062 20.328125 C 20.179688 20.363281 19.640625 20.949219 19.621094 21.75 C 19.605469 22.511719 20.074219 23.105469 20.839844 23.261719 C 21.054688 23.304688 21.28125 23.300781 21.503906 23.300781 C 23.105469 23.300781 24.707031 23.277344 26.304688 23.308594 C 27.257812 23.328125 27.835938 22.910156 28.167969 22.035156 C 28.589844 20.925781 29.054688 19.835938 29.585938 18.53125 C 29.816406 19.1875 29.992188 19.652344 30.144531 20.121094 C 31.03125 22.804688 31.917969 25.484375 32.796875 28.167969 C 33.023438 28.855469 33.386719 29.363281 34.1875 29.410156 C 34.96875 29.453125 35.449219 29.148438 35.777344 28.296875 C 36.394531 26.703125 36.980469 25.09375 37.578125 23.496094 C 37.945312 22.523438 38.308594 21.550781 38.734375 20.414062 C 39.035156 21 39.308594 21.425781 39.480469 21.894531 C 39.878906 22.945312 40.601562 23.328125 41.722656 23.320312 C 46.820312 23.28125 51.917969 23.300781 57.015625 23.300781 C 57.386719 23.300781 57.765625 23.28125 58.128906 23.328125 C 58.703125 23.40625 59.109375 23.863281 59.113281 24.375 C 59.117188 24.878906 58.714844 25.34375 58.148438 25.441406 C 57.859375 25.492188 57.554688 25.46875 57.257812 25.46875 C 55.136719 25.472656 53.015625 25.480469 50.894531 25.46875 C 50.417969 25.464844 50.070312 25.570312 49.75 25.980469 C 46.378906 30.285156 42.148438 33.601562 37.558594 36.488281 C 36.519531 37.140625 35.4375 37.722656 34.382812 38.347656 C 33.964844 38.597656 33.585938 38.632812 33.136719 38.382812 C 27.476562 35.226562 22.246094 31.523438 18.097656 26.464844 C 15.925781 23.820312 14.246094 20.898438 13.554688 17.5 C 12.878906 14.179688 13.148438 10.960938 14.992188 8.039062 C 16.867188 5.0625 19.703125 3.582031 23.144531 3.21875 C 27.410156 2.769531 30.445312 4.679688 32.578125 8.253906 C 32.785156 8.605469 32.960938 8.976562 33.144531 9.34375 C 33.308594 9.671875 33.460938 10.003906 33.714844 10.546875 Z M 33.714844 10.546875 " fill-opacity="1" fill-rule="nonzero"/></g></svg>