<svg xmlns="http://www.w3.org/2000/svg" xmlns:xlink="http://www.w3.org/1999/xlink" width="96" zoomAndPan="magnify" viewBox="0 0 72 72" height="96" preserveAspectRatio="xMidYMid meet" version="1.0"><defs><clipPath id="9677c615ae"><path d="M 0.570312 8.734375 L 71.070312 8.734375 L 71.070312 61.984375 L 0.570312 61.984375 Z M 0.570312 8.734375 " clip-rule="nonzero"/></clipPath><clipPath id="ffa6e71cec"><path d="M 25.390625 8.734375 L 46.390625 8.734375 L 46.390625 29.734375 L 25.390625 29.734375 Z M 25.390625 8.734375 " clip-rule="nonzero"/></clipPath><clipPath id="8ae472b3ff"><path d="M 26.449219 9.792969 L 45.199219 9.792969 L 45.199219 28.542969 L 26.449219 28.542969 Z M 26.449219 9.792969 " clip-rule="nonzero"/></clipPath></defs><g clip-path="url(#9677c615ae)"><path fill="#7c9498" d="M 67.875 58.238281 L 67.875 27.230469 C 67.875 25.464844 66.429688 24.019531 64.664062 24.019531 L 54.164062 24.019531 L 54.164062 58.238281 L 52.761719 58.238281 L 52.761719 11.917969 C 52.761719 10.152344 51.3125 8.707031 49.550781 8.707031 L 22.441406 8.707031 C 20.679688 8.707031 19.234375 10.152344 19.234375 11.917969 L 19.234375 58.242188 L 17.828125 58.242188 L 17.828125 24.019531 L 7.328125 24.019531 C 5.5625 24.019531 4.117188 25.464844 4.117188 27.230469 L 4.117188 58.238281 L 0.574219 58.238281 L 0.574219 61.890625 L 71.417969 61.890625 L 71.417969 58.238281 Z M 58.394531 33.144531 C 58.394531 32.863281 58.625 32.636719 58.902344 32.636719 L 63.136719 32.636719 C 63.417969 32.636719 63.644531 32.863281 63.644531 33.144531 L 63.644531 39.949219 C 63.644531 40.230469 63.417969 40.457031 63.136719 40.457031 L 58.902344 40.457031 C 58.625 40.457031 58.394531 40.230469 58.394531 39.949219 Z M 58.394531 46.15625 C 58.394531 45.878906 58.625 45.652344 58.902344 45.652344 L 63.136719 45.652344 C 63.417969 45.652344 63.644531 45.878906 63.644531 46.15625 L 63.644531 52.964844 C 63.644531 53.246094 63.417969 53.46875 63.136719 53.46875 L 58.902344 53.46875 C 58.625 53.46875 58.394531 53.246094 58.394531 52.964844 Z M 8.347656 33.144531 C 8.347656 32.863281 8.574219 32.636719 8.855469 32.636719 L 13.089844 32.636719 C 13.367188 32.636719 13.597656 32.863281 13.597656 33.144531 L 13.597656 39.949219 C 13.597656 40.230469 13.367188 40.457031 13.089844 40.457031 L 8.855469 40.457031 C 8.574219 40.457031 8.347656 40.230469 8.347656 39.949219 Z M 8.347656 46.15625 C 8.347656 45.878906 8.574219 45.652344 8.855469 45.652344 L 13.089844 45.652344 C 13.367188 45.652344 13.597656 45.878906 13.597656 46.15625 L 13.597656 52.964844 C 13.597656 53.246094 13.367188 53.46875 13.089844 53.46875 L 8.855469 53.46875 C 8.574219 53.46875 8.347656 53.246094 8.347656 52.964844 Z M 29.171875 52.964844 C 29.171875 53.246094 28.945312 53.46875 28.667969 53.46875 L 24.429688 53.46875 C 24.152344 53.46875 23.925781 53.246094 23.925781 52.964844 L 23.925781 46.15625 C 23.925781 45.878906 24.152344 45.652344 24.429688 45.652344 L 28.667969 45.652344 C 28.945312 45.652344 29.171875 45.878906 29.171875 46.15625 Z M 29.171875 39.949219 C 29.171875 40.230469 28.945312 40.457031 28.667969 40.457031 L 24.429688 40.457031 C 24.152344 40.457031 23.925781 40.230469 23.925781 39.949219 L 23.925781 33.144531 C 23.925781 32.863281 24.152344 32.636719 24.429688 32.636719 L 28.667969 32.636719 C 28.945312 32.636719 29.171875 32.863281 29.171875 33.144531 Z M 39.453125 58.238281 L 32.539062 58.238281 L 32.539062 46.320312 C 32.539062 45.949219 32.835938 45.652344 33.207031 45.652344 L 38.785156 45.652344 C 39.15625 45.652344 39.453125 45.949219 39.453125 46.320312 Z M 33.371094 39.949219 L 33.371094 33.144531 C 33.371094 32.863281 33.597656 32.636719 33.878906 32.636719 L 38.113281 32.636719 C 38.394531 32.636719 38.621094 32.863281 38.621094 33.144531 L 38.621094 39.949219 C 38.621094 40.230469 38.394531 40.457031 38.113281 40.457031 L 33.878906 40.457031 C 33.597656 40.457031 33.371094 40.230469 33.371094 39.949219 Z M 39.769531 22.878906 C 39.265625 22.878906 38.859375 23.289062 38.859375 23.785156 L 38.859375 26.667969 C 38.859375 27.167969 38.449219 27.578125 37.949219 27.578125 L 34.042969 27.578125 C 33.542969 27.578125 33.132812 27.167969 33.132812 26.667969 L 33.132812 23.785156 C 33.132812 23.289062 32.726562 22.878906 32.222656 22.878906 L 29.292969 22.878906 C 28.789062 22.878906 28.382812 22.46875 28.382812 21.96875 L 28.382812 18.285156 C 28.382812 17.785156 28.789062 17.378906 29.292969 17.378906 L 32.222656 17.378906 C 32.726562 17.378906 33.132812 16.964844 33.132812 16.46875 L 33.132812 13.617188 C 33.132812 13.117188 33.542969 12.707031 34.042969 12.707031 L 37.949219 12.707031 C 38.449219 12.707031 38.859375 13.117188 38.859375 13.617188 L 38.859375 16.46875 C 38.859375 16.96875 39.265625 17.378906 39.769531 17.378906 L 42.699219 17.378906 C 43.203125 17.378906 43.609375 17.785156 43.609375 18.285156 L 43.609375 21.96875 C 43.609375 22.46875 43.203125 22.878906 42.699219 22.878906 Z M 48.070312 52.964844 C 48.070312 53.246094 47.839844 53.46875 47.5625 53.46875 L 43.328125 53.46875 C 43.046875 53.46875 42.820312 53.246094 42.820312 52.964844 L 42.820312 46.15625 C 42.820312 45.878906 43.046875 45.652344 43.328125 45.652344 L 47.5625 45.652344 C 47.839844 45.652344 48.070312 45.878906 48.070312 46.15625 Z M 48.070312 39.949219 C 48.070312 40.230469 47.839844 40.457031 47.5625 40.457031 L 43.328125 40.457031 C 43.046875 40.457031 42.820312 40.230469 42.820312 39.949219 L 42.820312 33.144531 C 42.820312 32.863281 43.046875 32.636719 43.328125 32.636719 L 47.5625 32.636719 C 47.839844 32.636719 48.070312 32.863281 48.070312 33.144531 Z M 48.070312 39.949219 " fill-opacity="1" fill-rule="nonzero"/></g><g clip-path="url(#ffa6e71cec)"><path fill="#7c9498" d="M 28.894531 29.945312 L 43.09375 29.945312 C 45.027344 29.945312 46.601562 28.371094 46.601562 26.4375 L 46.601562 12.238281 C 46.601562 10.304688 45.027344 8.734375 43.09375 8.734375 L 28.894531 8.734375 C 26.960938 8.734375 25.390625 10.304688 25.390625 12.238281 L 25.390625 26.4375 C 25.390625 28.371094 26.960938 29.945312 28.894531 29.945312 Z M 28.894531 29.945312 " fill-opacity="1" fill-rule="nonzero"/></g><g clip-path="url(#8ae472b3ff)"><path fill="#000000" d="M 35.824219 9.792969 C 30.65625 9.792969 26.449219 14 26.449219 19.167969 C 26.449219 24.339844 30.65625 28.542969 35.824219 28.542969 C 40.996094 28.542969 45.199219 24.339844 45.199219 19.167969 C 45.199219 14 40.996094 9.792969 35.824219 9.792969 Z M 35.824219 26.730469 C 31.65625 26.730469 28.265625 23.335938 28.265625 19.167969 C 28.265625 15 31.65625 11.609375 35.824219 11.609375 C 39.996094 11.609375 43.386719 15 43.386719 19.167969 C 43.386719 23.335938 39.996094 26.730469 35.824219 26.730469 Z M 35.824219 26.730469 " fill-opacity="1" fill-rule="nonzero"/></g><path fill="#000000" d="M 39.339844 18.261719 L 36.734375 18.261719 L 36.734375 15.652344 C 36.734375 15.152344 36.328125 14.746094 35.824219 14.746094 C 35.324219 14.746094 34.917969 15.152344 34.917969 15.652344 L 34.917969 18.261719 L 32.308594 18.261719 C 31.808594 18.261719 31.402344 18.667969 31.402344 19.167969 C 31.402344 19.667969 31.808594 20.074219 32.308594 20.074219 L 34.917969 20.074219 L 34.917969 22.683594 C 34.917969 23.183594 35.324219 23.589844 35.824219 23.589844 C 36.328125 23.589844 36.734375 23.183594 36.734375 22.683594 L 36.734375 20.074219 L 39.339844 20.074219 C 39.84375 20.074219 40.25 19.667969 40.25 19.167969 C 40.25 18.667969 39.84375 18.261719 39.339844 18.261719 Z M 39.339844 18.261719 " fill-opacity="1" fill-rule="nonzero"/></svg>