<svg xmlns="http://www.w3.org/2000/svg" xmlns:xlink="http://www.w3.org/1999/xlink" width="96" zoomAndPan="magnify" viewBox="0 0 72 72" height="96" preserveAspectRatio="xMidYMid meet" version="1.0"><defs><clipPath id="3dd8faada7"><path d="M 4.75 0 L 63 0 L 63 68 L 4.75 68 Z M 4.75 0 " clip-rule="nonzero"/></clipPath><clipPath id="7547a6bb27"><path d="M 31 10 L 67 10 L 67 72 L 31 72 Z M 31 10 " clip-rule="nonzero"/></clipPath></defs><g clip-path="url(#3dd8faada7)"><path fill="#90849b" d="M 33.054688 67.746094 C 32.125 66.878906 31.234375 65.988281 30.34375 65.082031 C 29.902344 64.632812 29.460938 64.175781 29.03125 63.71875 C 28.597656 63.261719 28.164062 62.792969 27.742188 62.328125 C 26.027344 60.464844 24.375 58.546875 22.773438 56.589844 C 19.570312 52.664062 16.558594 48.5625 13.847656 44.238281 C 12.492188 42.078125 11.210938 39.855469 10.050781 37.566406 C 8.878906 35.28125 7.820312 32.914062 6.941406 30.457031 C 6.5 29.226562 6.101562 27.980469 5.769531 26.703125 C 5.609375 26.066406 5.457031 25.421875 5.328125 24.769531 C 5.203125 24.117188 5.089844 23.453125 5.007812 22.792969 C 4.828125 21.460938 4.753906 20.105469 4.8125 18.734375 C 4.863281 17.359375 5.058594 15.976562 5.421875 14.628906 C 5.609375 13.953125 5.835938 13.28125 6.109375 12.636719 C 6.175781 12.476562 6.246094 12.316406 6.320312 12.15625 C 6.398438 11.996094 6.472656 11.832031 6.550781 11.6875 L 6.785156 11.25 L 7.03125 10.808594 C 7.371094 10.222656 7.734375 9.65625 8.132812 9.09375 C 8.53125 8.542969 8.957031 8 9.429688 7.492188 C 10.371094 6.476562 11.472656 5.570312 12.738281 4.917969 C 13.992188 4.265625 15.382812 3.882812 16.753906 3.78125 C 17.441406 3.730469 18.121094 3.738281 18.789062 3.796875 C 19.121094 3.824219 19.460938 3.867188 19.78125 3.917969 C 19.941406 3.941406 20.113281 3.976562 20.273438 4 C 20.433594 4.035156 20.59375 4.058594 20.757812 4.101562 C 22.042969 4.382812 23.273438 4.789062 24.476562 5.246094 C 25.671875 5.714844 26.84375 6.238281 27.988281 6.789062 C 29.132812 7.339844 30.257812 7.925781 31.378906 8.511719 C 33.617188 9.6875 35.820312 10.910156 38.058594 12.046875 C 40.285156 13.179688 42.550781 14.242188 44.847656 15.070312 C 45.992188 15.488281 47.152344 15.835938 48.296875 16.078125 C 49.449219 16.324219 50.59375 16.460938 51.6875 16.4375 C 52.238281 16.425781 52.765625 16.367188 53.28125 16.265625 C 53.796875 16.164062 54.289062 16.019531 54.753906 15.824219 C 55.695312 15.445312 56.535156 14.859375 57.28125 14.128906 L 57.179688 14.222656 C 57.644531 13.664062 58.054688 13.085938 58.316406 12.511719 C 58.453125 12.222656 58.542969 11.933594 58.613281 11.664062 C 58.671875 11.382812 58.707031 11.121094 58.707031 10.867188 C 58.707031 10.613281 58.671875 10.367188 58.59375 10.128906 C 58.527344 9.890625 58.433594 9.65625 58.300781 9.425781 C 58.042969 8.96875 57.644531 8.511719 57.164062 8.085938 C 56.671875 7.664062 56.09375 7.28125 55.46875 6.933594 C 54.839844 6.585938 54.152344 6.28125 53.449219 6 C 52.027344 5.449219 50.5 5.027344 48.925781 4.695312 C 47.347656 4.367188 45.726562 4.136719 44.082031 3.96875 C 42.4375 3.796875 40.769531 3.710938 39.089844 3.652344 C 37.414062 3.601562 35.71875 3.609375 34.003906 3.636719 C 33.582031 3.644531 33.148438 3.652344 32.726562 3.660156 L 31.4375 3.695312 C 30.582031 3.722656 29.714844 3.753906 28.84375 3.78125 C 28.722656 3.78125 28.621094 3.6875 28.621094 3.570312 C 28.621094 3.476562 28.671875 3.398438 28.757812 3.363281 C 29.570312 3.035156 30.394531 2.746094 31.226562 2.476562 C 31.640625 2.339844 32.054688 2.210938 32.480469 2.085938 C 32.902344 1.964844 33.320312 1.847656 33.742188 1.730469 C 35.4375 1.28125 37.160156 0.933594 38.914062 0.667969 C 42.40625 0.152344 46 0 49.628906 0.457031 C 51.441406 0.6875 53.265625 1.078125 55.0625 1.738281 C 55.960938 2.066406 56.847656 2.464844 57.714844 2.957031 C 58.144531 3.203125 58.578125 3.476562 58.992188 3.78125 C 59.410156 4.085938 59.816406 4.417969 60.207031 4.789062 C 60.976562 5.527344 61.691406 6.425781 62.191406 7.511719 C 62.4375 8.054688 62.628906 8.628906 62.742188 9.230469 C 62.851562 9.832031 62.886719 10.453125 62.832031 11.054688 C 62.792969 11.65625 62.65625 12.238281 62.476562 12.792969 C 62.300781 13.332031 62.0625 13.851562 61.792969 14.316406 C 61.257812 15.257812 60.597656 16.054688 59.894531 16.75 L 59.800781 16.84375 C 59.25 17.324219 58.648438 17.765625 57.992188 18.148438 C 57.351562 18.53125 56.664062 18.84375 55.941406 19.082031 C 55.230469 19.308594 54.492188 19.480469 53.765625 19.554688 C 53.035156 19.632812 52.304688 19.648438 51.59375 19.597656 C 50.171875 19.496094 48.820312 19.191406 47.550781 18.777344 C 46.269531 18.359375 45.066406 17.84375 43.898438 17.273438 C 41.558594 16.140625 39.378906 14.824219 37.21875 13.511719 C 35.066406 12.199219 32.929688 10.867188 30.742188 9.644531 C 28.5625 8.433594 26.332031 7.289062 24.011719 6.484375 C 22.851562 6.085938 21.664062 5.765625 20.476562 5.585938 C 19.882812 5.5 19.289062 5.449219 18.703125 5.449219 C 18.121094 5.449219 17.535156 5.492188 16.976562 5.59375 C 16.417969 5.695312 15.867188 5.847656 15.347656 6.0625 C 14.832031 6.273438 14.339844 6.535156 13.890625 6.847656 C 12.976562 7.476562 12.195312 8.28125 11.535156 9.207031 C 11.203125 9.664062 10.898438 10.15625 10.617188 10.65625 C 10.339844 11.164062 10.085938 11.679688 9.847656 12.214844 L 9.667969 12.621094 L 9.5 13.027344 C 9.441406 13.164062 9.398438 13.292969 9.347656 13.417969 C 9.296875 13.546875 9.253906 13.679688 9.203125 13.808594 C 9.023438 14.332031 8.878906 14.867188 8.769531 15.410156 C 8.550781 16.503906 8.449219 17.632812 8.457031 18.777344 C 8.457031 19.351562 8.492188 19.921875 8.53125 20.503906 C 8.582031 21.082031 8.652344 21.667969 8.738281 22.242188 C 8.914062 23.402344 9.160156 24.566406 9.464844 25.71875 C 9.617188 26.292969 9.777344 26.871094 9.957031 27.445312 C 10.136719 28.023438 10.3125 28.601562 10.515625 29.167969 C 10.710938 29.734375 10.921875 30.3125 11.136719 30.878906 C 11.355469 31.449219 11.574219 32.015625 11.8125 32.574219 C 12.28125 33.703125 12.78125 34.820312 13.304688 35.933594 C 14.355469 38.152344 15.507812 40.339844 16.722656 42.5 C 19.152344 46.824219 21.824219 51.039062 24.621094 55.183594 C 27.417969 59.328125 30.351562 63.40625 33.371094 67.429688 C 33.4375 67.523438 33.421875 67.660156 33.328125 67.726562 C 33.242188 67.820312 33.132812 67.8125 33.054688 67.746094 Z M 33.054688 67.746094 " fill-opacity="1" fill-rule="nonzero"/></g><g clip-path="url(#7547a6bb27)"><path fill="#070707" d="M 67.191406 20.769531 C 67.175781 20.082031 67.148438 19.394531 67.125 18.707031 C 67.097656 18.019531 67.054688 17.34375 67.003906 16.65625 C 66.953125 15.96875 66.902344 15.292969 66.828125 14.613281 C 66.757812 13.933594 66.683594 13.25 66.589844 12.578125 C 66.496094 11.902344 66.394531 11.222656 66.265625 10.554688 C 66.300781 11.917969 66.277344 13.273438 66.242188 14.640625 C 66.214844 15.316406 66.191406 15.996094 66.15625 16.671875 C 66.121094 17.351562 66.082031 18.03125 66.039062 18.707031 C 65.996094 19.386719 65.9375 20.054688 65.878906 20.734375 C 65.816406 21.410156 65.757812 22.082031 65.683594 22.75 C 65.613281 23.421875 65.53125 24.089844 65.445312 24.761719 C 65.359375 25.429688 65.273438 26.097656 65.171875 26.769531 C 64.402344 32.101562 63.207031 37.355469 61.496094 42.398438 C 59.78125 47.433594 57.511719 52.257812 54.601562 56.613281 C 53.144531 58.792969 51.527344 60.851562 49.753906 62.753906 C 49.203125 63.335938 48.636719 63.914062 48.058594 64.472656 C 48.246094 62.640625 48.382812 60.800781 48.449219 58.953125 C 48.507812 57.105469 48.515625 55.242188 48.414062 53.378906 C 48.3125 51.511719 48.117188 49.640625 47.769531 47.765625 C 47.414062 45.902344 46.914062 44.027344 46.101562 42.230469 C 45.695312 41.332031 45.203125 40.457031 44.609375 39.636719 C 44.015625 38.8125 43.285156 38.058594 42.4375 37.449219 C 41.601562 36.839844 40.625 36.398438 39.625 36.167969 C 39.125 36.050781 38.625 35.992188 38.132812 35.972656 C 37.632812 35.957031 37.148438 35.972656 36.667969 36.035156 C 36.183594 36.09375 35.71875 36.1875 35.257812 36.304688 C 34.800781 36.425781 34.351562 36.566406 33.921875 36.730469 C 33.046875 37.058594 32.226562 37.464844 31.4375 37.933594 C 32.328125 37.710938 33.207031 37.515625 34.089844 37.40625 C 34.53125 37.347656 34.972656 37.304688 35.402344 37.296875 C 35.835938 37.28125 36.269531 37.28125 36.699219 37.3125 C 37.546875 37.382812 38.363281 37.558594 39.097656 37.875 C 39.464844 38.027344 39.8125 38.210938 40.132812 38.433594 C 40.292969 38.542969 40.449219 38.660156 40.601562 38.78125 C 40.753906 38.898438 40.898438 39.035156 41.03125 39.160156 C 42.132812 40.253906 42.863281 41.722656 43.355469 43.289062 C 43.601562 44.078125 43.804688 44.890625 43.957031 45.730469 C 44.117188 46.5625 44.226562 47.410156 44.3125 48.265625 C 44.398438 49.121094 44.457031 49.988281 44.492188 50.851562 C 44.53125 51.714844 44.542969 52.589844 44.542969 53.460938 C 44.53125 55.207031 44.464844 56.972656 44.347656 58.734375 C 44.109375 62.261719 43.703125 65.785156 43.183594 69.304688 L 43.175781 69.339844 C 43.101562 69.882812 43.234375 70.449219 43.59375 70.914062 C 44.296875 71.832031 45.617188 72 46.535156 71.296875 C 47.660156 70.421875 48.753906 69.507812 49.796875 68.542969 C 50.839844 67.574219 51.839844 66.558594 52.789062 65.5 C 54.6875 63.386719 56.382812 61.097656 57.882812 58.699219 C 58.628906 57.503906 59.324219 56.277344 59.976562 55.019531 C 60.621094 53.773438 61.222656 52.496094 61.773438 51.207031 C 62.875 48.628906 63.792969 45.984375 64.53125 43.296875 C 64.714844 42.628906 64.894531 41.949219 65.054688 41.28125 C 65.214844 40.601562 65.378906 39.933594 65.519531 39.253906 C 65.808594 37.898438 66.054688 36.535156 66.277344 35.167969 C 66.496094 33.804688 66.664062 32.429688 66.808594 31.058594 C 66.878906 30.371094 66.945312 29.683594 66.996094 29 C 67.046875 28.3125 67.089844 27.625 67.125 26.9375 C 67.15625 26.25 67.191406 25.566406 67.207031 24.878906 C 67.226562 24.191406 67.234375 23.503906 67.242188 22.820312 C 67.214844 22.140625 67.207031 21.453125 67.191406 20.769531 Z M 67.191406 20.769531 " fill-opacity="1" fill-rule="nonzero"/></g></svg>