<?xml version="1.0" encoding="UTF-8"?>
<!DOCTYPE svg PUBLIC "-//W3C//DTD SVG 1.1//EN" "http://www.w3.org/Graphics/SVG/1.1/DTD/svg11.dtd">
<svg xmlns="http://www.w3.org/2000/svg" version="1.1" width="532px" height="600px" style="shape-rendering:geometricPrecision; text-rendering:geometricPrecision; image-rendering:optimizeQuality; fill-rule:evenodd; clip-rule:evenodd" xmlns:xlink="http://www.w3.org/1999/xlink">
<g><path style="opacity:0.696" fill="#c0ff71" d="M 482.5,-0.5 C 484.167,-0.5 485.833,-0.5 487.5,-0.5C 488.85,1.68291 490.684,3.34958 493,4.5C 495.341,2.98382 497.508,1.31715 499.5,-0.5C 501.167,-0.5 502.833,-0.5 504.5,-0.5C 500.879,2.7829 497.213,6.11623 493.5,9.5C 489.189,6.85469 485.522,3.52135 482.5,-0.5 Z"/></g>
<g><path style="opacity:0.715" fill="#c0ff71" d="M 472.5,10.5 C 477.533,9.9087 482.2,10.9087 486.5,13.5C 492.011,9.68724 497.677,9.52057 503.5,13C 507.279,16.9901 508.112,21.4901 506,26.5C 500.188,32.6433 494.022,38.4767 487.5,44C 486.5,44.6667 485.5,44.6667 484.5,44C 477.667,38.5 471.5,32.3333 466,25.5C 464.366,18.7751 466.532,13.7751 472.5,10.5 Z M 474.5,13.5 C 478.888,13.6951 482.888,15.0284 486.5,17.5C 488.606,16.5705 490.606,15.4038 492.5,14C 500.667,12.8333 504.167,16.3333 503,24.5C 497.688,30.1436 492.021,35.477 486,40.5C 479.667,35.5 474,29.8333 469,23.5C 468.448,18.8786 470.282,15.5453 474.5,13.5 Z"/></g>
<g><path style="opacity:0.089" fill="#00be62" d="M -0.5,70.5 C -0.5,52.8333 -0.5,35.1667 -0.5,17.5C 8.25852,17.3463 16.9252,18.1796 25.5,20C 44.4246,25.1971 63.0913,31.1971 81.5,38C 104.62,45.5487 127.62,45.2153 150.5,37C 166.17,30.9863 181.17,23.653 195.5,15C 196.944,14.2195 198.277,14.3861 199.5,15.5C 194.966,21.2003 189.632,26.0336 183.5,30C 153.843,51.3294 121.509,67.6627 86.5,79C 70.5434,83.9998 54.5434,84.3332 38.5,80C 26.1377,74.1593 13.1377,70.9927 -0.5,70.5 Z"/></g>
<g><path style="opacity:0.715" fill="#c0ff71" d="M 456.5,37.5 C 463.164,38.6611 469.831,38.8277 476.5,38C 481.124,41.6644 481.624,45.8311 478,50.5C 474.019,53.6468 470.186,56.9801 466.5,60.5C 461.188,57.0215 456.688,52.6882 453,47.5C 452.333,45.5 452.333,43.5 453,41.5C 454.376,40.2949 455.542,38.9616 456.5,37.5 Z M 458.5,40.5 C 461.588,40.3773 464.255,41.3773 466.5,43.5C 469.42,40.0773 472.587,39.744 476,42.5C 476.667,44.1667 476.667,45.8333 476,47.5C 472.687,49.9787 469.52,52.6454 466.5,55.5C 462.558,53.0617 459.058,50.0617 456,46.5C 455.458,43.9175 456.292,41.9175 458.5,40.5 Z"/></g>
<g><path style="opacity:0.711" fill="#c0ff71" d="M 460.5,61.5 C 465.204,60.9615 469.538,61.9615 473.5,64.5C 482.185,59.2603 489.018,60.927 494,69.5C 494.841,73.1202 494.174,76.4536 492,79.5C 486.198,84.3004 480.698,89.467 475.5,95C 474.167,95.6667 472.833,95.6667 471.5,95C 465.762,89.3843 459.929,83.8843 454,78.5C 450.647,70.5614 452.813,64.8948 460.5,61.5 Z M 461.5,64.5 C 466.247,64.1357 470.081,65.8023 473,69.5C 478.466,63.533 484.133,63.1997 490,68.5C 490.402,69.8721 490.902,71.2054 491.5,72.5C 490.902,73.7946 490.402,75.1279 490,76.5C 484.35,81.3154 478.85,86.3154 473.5,91.5C 466.853,86.6864 461.019,81.0197 456,74.5C 455.477,69.8799 457.31,66.5466 461.5,64.5 Z"/></g>
<g><path style="opacity:0.703" fill="#c0ff71" d="M 484.5,88.5 C 487.724,88.2035 490.724,88.8702 493.5,90.5C 500.473,86.6081 505.14,88.4414 507.5,96C 507,97.5 506.5,99 506,100.5C 502.466,104.369 498.633,107.869 494.5,111C 493.5,111.667 492.5,111.667 491.5,111C 487.667,107.167 483.833,103.333 480,99.5C 478.776,94.626 480.276,90.9593 484.5,88.5 Z M 486.5,91.5 C 488.855,92.0944 491.022,93.0944 493,94.5C 496.148,91.3226 499.481,90.9893 503,93.5C 503.667,95.1667 503.667,96.8333 503,98.5C 499.965,101.87 496.632,104.87 493,107.5C 489.667,104.167 486.333,100.833 483,97.5C 482.651,94.6695 483.817,92.6695 486.5,91.5 Z"/></g>
<g><path style="opacity:0.976" fill="#95f36e" d="M 449.5,101.5 C 449.5,101.833 449.5,102.167 449.5,102.5C 437.25,100.561 425.917,103.061 415.5,110C 401.597,119.736 389.93,131.569 380.5,145.5C 377.875,144.534 377.875,143.534 380.5,142.5C 380.167,142.167 379.833,141.833 379.5,141.5C 378.575,142.641 377.741,142.641 377,141.5C 376.002,144.028 375.169,144.028 374.5,141.5C 375.732,139.95 376.232,138.283 376,136.5C 371.879,139.009 368.046,141.676 364.5,144.5C 364.167,143.833 363.833,143.167 363.5,142.5C 362.252,143.04 361.085,143.707 360,144.5C 359.667,144.167 359.333,143.833 359,143.5C 357.666,145.503 356.166,147.003 354.5,148C 355.899,148.595 357.232,148.428 358.5,147.5C 359.833,148.833 359.833,150.167 358.5,151.5C 357.131,149.876 355.464,149.376 353.5,150C 354.5,151.667 355.5,153.333 356.5,155C 353.833,156 353.833,157 356.5,158C 355.906,158.464 355.239,158.631 354.5,158.5C 340.736,147.857 325.069,142.69 307.5,143C 324.151,112.066 350.151,95.0663 385.5,92C 407.614,90.097 428.947,93.2636 449.5,101.5 Z"/></g>
<g><path style="opacity:0.873" fill="#033f2c" d="M 458.5,106.5 C 455.378,105.439 452.378,104.105 449.5,102.5C 449.5,102.167 449.5,101.833 449.5,101.5C 450.418,99.1795 451.752,97.0129 453.5,95C 457.508,93.5844 459.841,94.9177 460.5,99C 459.929,101.544 459.262,104.044 458.5,106.5 Z"/></g>
<g><path style="opacity:0.995" fill="#05bf63" d="M 449.5,102.5 C 452.378,104.105 455.378,105.439 458.5,106.5C 459.167,106.5 459.5,106.833 459.5,107.5C 462.165,110.335 464.665,113.335 467,116.5C 465.814,119.652 465.481,122.985 466,126.5C 468.335,129.665 470.835,132.665 473.5,135.5C 473.768,137.099 473.434,138.432 472.5,139.5C 470.213,139.724 468.047,140.391 466,141.5C 459.119,137.59 454.953,139.423 453.5,147C 453.667,148.167 453.833,149.333 454,150.5C 457.5,154 461,157.5 464.5,161C 465.5,161.667 466.5,161.667 467.5,161C 469.396,158.932 471.396,157.099 473.5,155.5C 474.404,156.209 474.737,157.209 474.5,158.5C 474.296,161.518 473.963,164.518 473.5,167.5C 469.298,164.639 464.631,163.806 459.5,165C 453.458,168.748 451.958,173.915 455,180.5C 459.036,184.704 463.202,188.704 467.5,192.5C 465.114,199.606 462.447,206.606 459.5,213.5C 448.251,201.571 435.585,191.571 421.5,183.5C 419.421,181.127 416.754,179.794 413.5,179.5C 398.805,173.494 383.472,170.494 367.5,170.5C 371.04,161.753 375.373,153.42 380.5,145.5C 389.93,131.569 401.597,119.736 415.5,110C 425.917,103.061 437.25,100.561 449.5,102.5 Z"/></g>
<g><path style="opacity:0.804" fill="#bafc71" d="M 459.5,107.5 C 463.858,109.096 468.025,111.096 472,113.5C 477.046,111.797 481.713,112.463 486,115.5C 491.725,111.806 497.558,111.639 503.5,115C 508.552,120.366 508.719,125.866 504,131.5C 501.809,132.833 499.976,134.5 498.5,136.5C 494.247,139.41 490.247,142.744 486.5,146.5C 481.854,143.186 477.521,139.519 473.5,135.5C 470.835,132.665 468.335,129.665 466,126.5C 465.481,122.985 465.814,119.652 467,116.5C 464.665,113.335 462.165,110.335 459.5,107.5 Z M 474.5,115.5 C 479.102,115.384 482.935,117.051 486,120.5C 490.561,115.414 495.727,114.581 501.5,118C 504.998,125.184 502.998,130.351 495.5,133.5C 489.064,126.722 482.064,120.722 474.5,115.5 Z"/></g>
<g><path style="opacity:0.96" fill="#96f36e" d="M 474.5,115.5 C 482.064,120.722 489.064,126.722 495.5,133.5C 493.235,137.601 490.068,140.934 486,143.5C 481.301,139.3 476.801,134.966 472.5,130.5C 471.733,126.851 470.4,123.518 468.5,120.5C 469.911,118.086 471.911,116.419 474.5,115.5 Z"/></g>
<g><path style="opacity:1" fill="#3bc66c" d="M 468.5,120.5 C 470.4,123.518 471.733,126.851 472.5,130.5C 468.909,128.218 467.576,124.884 468.5,120.5 Z"/></g>
<g><path style="opacity:1" fill="#b0f970" d="M 472.5,139.5 C 478.197,140.874 480.364,144.541 479,150.5C 477.27,152.402 475.437,154.069 473.5,155.5C 471.396,157.099 469.396,158.932 467.5,161C 466.5,161.667 465.5,161.667 464.5,161C 461,157.5 457.5,154 454,150.5C 453.833,149.333 453.667,148.167 453.5,147C 454.953,139.423 459.119,137.59 466,141.5C 468.047,140.391 470.213,139.724 472.5,139.5 Z"/></g>
<g><path style="opacity:1" fill="#10c064" d="M 470.5,141.5 C 471.822,141.33 472.989,141.663 474,142.5C 474.667,145.5 474.667,148.5 474,151.5C 471.651,154.017 469.151,156.35 466.5,158.5C 462.721,155.855 459.221,152.855 456,149.5C 454.511,145.167 456.011,142.833 460.5,142.5C 462.611,142.486 464.445,143.152 466,144.5C 467.666,143.652 469.166,142.652 470.5,141.5 Z"/></g>
<g><path style="opacity:1" fill="#83ec6d" d="M 380.5,145.5 C 375.373,153.42 371.04,161.753 367.5,170.5C 362.56,167.23 358.227,163.23 354.5,158.5C 355.239,158.631 355.906,158.464 356.5,158C 353.833,157 353.833,156 356.5,155C 355.5,153.333 354.5,151.667 353.5,150C 355.464,149.376 357.131,149.876 358.5,151.5C 359.833,150.167 359.833,148.833 358.5,147.5C 357.232,148.428 355.899,148.595 354.5,148C 356.166,147.003 357.666,145.503 359,143.5C 359.333,143.833 359.667,144.167 360,144.5C 361.085,143.707 362.252,143.04 363.5,142.5C 363.833,143.167 364.167,143.833 364.5,144.5C 368.046,141.676 371.879,139.009 376,136.5C 376.232,138.283 375.732,139.95 374.5,141.5C 375.169,144.028 376.002,144.028 377,141.5C 377.741,142.641 378.575,142.641 379.5,141.5C 379.833,141.833 380.167,142.167 380.5,142.5C 377.875,143.534 377.875,144.534 380.5,145.5 Z"/></g>
<g><path style="opacity:1" fill="#73e76c" d="M 480.5,164.5 C 477.794,164.688 475.461,165.688 473.5,167.5C 473.963,164.518 474.296,161.518 474.5,158.5C 475.222,158.082 475.722,157.416 476,156.5C 476.359,159.544 477.026,159.878 478,157.5C 478.333,158.167 478.667,158.833 479,159.5C 480.904,156.077 481.737,152.41 481.5,148.5C 484.522,148.804 487.522,149.304 490.5,150C 489.159,151.826 489.659,152.993 492,153.5C 495.529,150.795 495.363,149.628 491.5,150C 492.574,149.261 493.241,148.261 493.5,147C 491.571,142.017 492.904,141.017 497.5,144C 496.552,144.483 495.552,144.649 494.5,144.5C 494.297,146.39 494.963,147.89 496.5,149C 496.167,149.333 495.833,149.667 495.5,150C 497.228,149.647 498.894,149.481 500.5,149.5C 501.645,150.776 501.645,152.109 500.5,153.5C 501.025,154.192 501.692,154.692 502.5,155C 500.924,155.44 499.59,156.273 498.5,157.5C 498.167,156.833 497.833,156.167 497.5,155.5C 495.884,156.115 494.551,157.115 493.5,158.5C 493.617,153.519 491.784,153.185 488,157.5C 487.086,156.346 486.253,156.513 485.5,158C 485.833,158.333 486.167,158.667 486.5,159C 484.096,159.508 483.429,160.675 484.5,162.5C 483.051,163.172 481.718,163.839 480.5,164.5 Z"/></g>
<g><path style="opacity:1" fill="#8df06e" d="M 473.5,135.5 C 477.521,139.519 481.854,143.186 486.5,146.5C 490.247,142.744 494.247,139.41 498.5,136.5C 504.826,143.812 510.159,151.812 514.5,160.5C 511.981,160.848 510.147,162.181 509,164.5C 508.626,163.584 508.126,162.75 507.5,162C 508.308,161.692 508.975,161.192 509.5,160.5C 507.833,159.833 506.167,159.167 504.5,158.5C 505.59,157.391 505.59,156.391 504.5,155.5C 503.5,155.833 502.833,156.5 502.5,157.5C 502.904,160.143 503.57,162.643 504.5,165C 503.256,165.456 502.423,164.956 502,163.5C 501,164.167 500,164.833 499,165.5C 498.544,164.256 499.044,163.423 500.5,163C 498.487,162.125 498.487,160.791 500.5,159C 498.182,158.658 496.015,159.158 494,160.5C 492.68,160.201 491.18,160.034 489.5,160C 491.595,159.444 491.762,158.944 490,158.5C 488.629,159.581 487.129,160.415 485.5,161C 486.5,161.333 487.5,161.667 488.5,162C 487.748,162.671 487.414,163.504 487.5,164.5C 485.167,164.5 482.833,164.5 480.5,164.5C 481.718,163.839 483.051,163.172 484.5,162.5C 483.429,160.675 484.096,159.508 486.5,159C 486.167,158.667 485.833,158.333 485.5,158C 486.253,156.513 487.086,156.346 488,157.5C 491.784,153.185 493.617,153.519 493.5,158.5C 494.551,157.115 495.884,156.115 497.5,155.5C 497.833,156.167 498.167,156.833 498.5,157.5C 499.59,156.273 500.924,155.44 502.5,155C 501.692,154.692 501.025,154.192 500.5,153.5C 501.645,152.109 501.645,150.776 500.5,149.5C 498.894,149.481 497.228,149.647 495.5,150C 495.833,149.667 496.167,149.333 496.5,149C 494.963,147.89 494.297,146.39 494.5,144.5C 495.552,144.649 496.552,144.483 497.5,144C 492.904,141.017 491.571,142.017 493.5,147C 493.241,148.261 492.574,149.261 491.5,150C 495.363,149.628 495.529,150.795 492,153.5C 489.659,152.993 489.159,151.826 490.5,150C 487.522,149.304 484.522,148.804 481.5,148.5C 481.737,152.41 480.904,156.077 479,159.5C 478.667,158.833 478.333,158.167 478,157.5C 477.026,159.878 476.359,159.544 476,156.5C 475.722,157.416 475.222,158.082 474.5,158.5C 474.737,157.209 474.404,156.209 473.5,155.5C 475.437,154.069 477.27,152.402 479,150.5C 480.364,144.541 478.197,140.874 472.5,139.5C 473.434,138.432 473.768,137.099 473.5,135.5 Z"/></g>
<g><path style="opacity:1" fill="#5cdf6a" d="M 514.5,160.5 C 526.144,183.146 528.644,206.813 522,231.5C 520.924,234.648 519.591,237.648 518,240.5C 514.298,236.63 510.464,232.963 506.5,229.5C 507.965,220.644 504.298,215.977 495.5,215.5C 492.308,215.449 489.308,216.116 486.5,217.5C 486.167,217.5 485.833,217.5 485.5,217.5C 481.832,215.279 477.832,214.279 473.5,214.5C 468.848,214.002 464.181,213.669 459.5,213.5C 462.447,206.606 465.114,199.606 467.5,192.5C 469.481,194.144 471.481,195.81 473.5,197.5C 479.951,192.183 486.118,186.516 492,180.5C 495.006,173.771 493.506,168.438 487.5,164.5C 487.414,163.504 487.748,162.671 488.5,162C 487.5,161.667 486.5,161.333 485.5,161C 487.129,160.415 488.629,159.581 490,158.5C 491.762,158.944 491.595,159.444 489.5,160C 491.18,160.034 492.68,160.201 494,160.5C 496.015,159.158 498.182,158.658 500.5,159C 498.487,160.791 498.487,162.125 500.5,163C 499.044,163.423 498.544,164.256 499,165.5C 500,164.833 501,164.167 502,163.5C 502.423,164.956 503.256,165.456 504.5,165C 503.57,162.643 502.904,160.143 502.5,157.5C 502.833,156.5 503.5,155.833 504.5,155.5C 505.59,156.391 505.59,157.391 504.5,158.5C 506.167,159.167 507.833,159.833 509.5,160.5C 508.975,161.192 508.308,161.692 507.5,162C 508.126,162.75 508.626,163.584 509,164.5C 510.147,162.181 511.981,160.848 514.5,160.5 Z"/></g>
<g><path style="opacity:1" fill="#b9fc71" d="M 473.5,167.5 C 475.461,165.688 477.794,164.688 480.5,164.5C 482.833,164.5 485.167,164.5 487.5,164.5C 493.506,168.438 495.006,173.771 492,180.5C 486.118,186.516 479.951,192.183 473.5,197.5C 471.481,195.81 469.481,194.144 467.5,192.5C 463.202,188.704 459.036,184.704 455,180.5C 451.958,173.915 453.458,168.748 459.5,165C 464.631,163.806 469.298,164.639 473.5,167.5 Z"/></g>
<g><path style="opacity:1" fill="#0ec063" d="M 472.5,170.5 C 471.641,176.935 470.308,183.269 468.5,189.5C 464.243,186.749 460.41,183.416 457,179.5C 454.045,169.446 457.879,165.28 468.5,167C 470.093,167.949 471.426,169.115 472.5,170.5 Z"/></g>
<g><path style="opacity:1" fill="#5ddf6a" d="M 468.5,189.5 C 470.308,183.269 471.641,176.935 472.5,170.5C 474.595,169.588 476.595,168.421 478.5,167C 483.937,165.345 488.103,166.845 491,171.5C 491.667,173.5 491.667,175.5 491,177.5C 485.554,182.946 480.054,188.446 474.5,194C 471.879,193.573 469.879,192.073 468.5,189.5 Z"/></g>
<g><path style="opacity:0.968" fill="#053e2c" d="M 413.5,179.5 C 416.754,179.794 419.421,181.127 421.5,183.5C 418.173,191.489 414.84,199.489 411.5,207.5C 404.605,220.161 398.271,233.161 392.5,246.5C 390.229,250.709 388.229,255.042 386.5,259.5C 383.561,261.704 381.895,264.704 381.5,268.5C 379.568,265.634 377.901,262.634 376.5,259.5C 377.737,258.035 378.737,256.368 379.5,254.5C 381.167,250.5 382.833,246.5 384.5,242.5C 391.984,227.865 398.651,212.865 404.5,197.5C 408.01,191.813 411.01,185.813 413.5,179.5 Z"/></g>
<g><path style="opacity:0.97" fill="#955442" d="M 404.5,197.5 C 398.651,212.865 391.984,227.865 384.5,242.5C 382.983,242.489 381.816,241.823 381,240.5C 380.042,237.925 379.542,235.259 379.5,232.5C 380.441,226.454 382.107,220.621 384.5,215C 377.577,212.891 371.91,209.058 367.5,203.5C 359.968,208.566 351.635,211.232 342.5,211.5C 341.885,220.016 342.718,228.349 345,236.5C 347.84,240.327 351.34,243.327 355.5,245.5C 355.158,246.338 354.492,246.672 353.5,246.5C 345.001,247.961 338.834,244.961 335,237.5C 334.171,230.766 334.504,224.099 336,217.5C 339.888,190.301 355.388,179.468 382.5,185C 390.947,187.296 398.28,191.463 404.5,197.5 Z"/></g>
<g><path style="opacity:1" fill="#b7fb71" d="M 484.5,190.5 C 487.62,190.156 490.453,190.823 493,192.5C 499.674,188.785 504.174,190.452 506.5,197.5C 506.423,199.299 505.923,200.966 505,202.5C 501.233,207.098 496.733,210.265 491.5,212C 486.724,207.899 482.724,203.232 479.5,198C 480.311,194.865 481.977,192.365 484.5,190.5 Z"/></g>
<g><path style="opacity:0.99" fill="#02bd62" d="M 267.5,258.5 C 262.217,257.275 256.883,256.775 251.5,257C 247.575,258.784 246.575,261.617 248.5,265.5C 247.65,267.585 247.316,269.585 247.5,271.5C 248.09,272.799 249.09,273.632 250.5,274C 249.62,275.356 249.286,276.856 249.5,278.5C 250.5,278.5 251.5,278.5 252.5,278.5C 252.167,279.5 251.5,280.167 250.5,280.5C 232.488,280.833 214.488,280.5 196.5,279.5C 193.667,275.167 190.833,270.833 188,266.5C 185.267,264.109 182.6,264.109 180,266.5C 169.707,279.129 159.04,291.462 148,303.5C 137.938,288.433 128.271,273.1 119,257.5C 115.952,253.99 112.619,253.657 109,256.5C 105.167,264.167 101.333,271.833 97.5,279.5C 87.5222,280.499 77.5222,280.832 67.5,280.5C 67.5,283.833 67.5,287.167 67.5,290.5C 79.1714,290.667 90.8381,290.5 102.5,290C 106.711,283.747 110.545,277.247 114,270.5C 124.167,285.496 133.833,300.829 143,316.5C 146.875,319.22 150.209,318.554 153,314.5C 162.459,302.706 172.292,291.206 182.5,280C 183.167,279.333 183.833,279.333 184.5,280C 186.458,282.748 188.291,285.582 190,288.5C 190.816,289.823 191.983,290.489 193.5,290.5C 210.565,291.291 227.565,291.958 244.5,292.5C 244.082,293.222 243.416,293.722 242.5,294C 243.833,294.333 245.167,294.667 246.5,295C 244.598,295.199 243.098,296.033 242,297.5C 241.333,296.167 240.667,294.833 240,293.5C 240,295.5 240,297.5 240,299.5C 238.963,296.616 237.129,295.95 234.5,297.5C 235.025,298.192 235.692,298.692 236.5,299C 236.272,299.399 235.938,299.565 235.5,299.5C 233.774,299.185 232.107,299.019 230.5,299C 230.833,299.333 231.167,299.667 231.5,300C 229.667,300.5 228.5,301.667 228,303.5C 227.586,303.043 227.086,302.709 226.5,302.5C 225.757,303.908 224.923,305.241 224,306.5C 223.667,305.833 223.333,305.167 223,304.5C 222.316,305.784 222.483,306.951 223.5,308C 222.167,308.333 220.833,308.667 219.5,309C 220.654,309.914 220.487,310.747 219,311.5C 217.913,309.068 217.413,309.402 217.5,312.5C 214.402,312.413 214.068,312.913 216.5,314C 215.975,314.692 215.308,315.192 214.5,315.5C 213.643,314.264 212.977,312.931 212.5,311.5C 213.98,310.887 215.313,310.554 216.5,310.5C 215.478,309.646 214.645,308.646 214,307.5C 212.829,308.893 211.329,309.727 209.5,310C 211.958,311.733 211.625,312.9 208.5,313.5C 207.957,313.56 207.624,313.893 207.5,314.5C 210.044,315.937 210.044,317.437 207.5,319C 208.888,319.889 208.722,320.389 207,320.5C 206.5,320.167 206,319.833 205.5,319.5C 206.165,317.899 206.499,316.399 206.5,315C 205.552,314.517 204.552,314.351 203.5,314.5C 202.516,309.342 201.683,309.342 201,314.5C 199.357,313.488 198.19,312.488 197.5,311.5C 195.547,312.156 193.547,312.489 191.5,312.5C 191.719,311.325 191.386,310.325 190.5,309.5C 190.167,309.833 189.833,310.167 189.5,310.5C 191.805,312.981 191.805,315.314 189.5,317.5C 191.167,318.167 192.833,318.833 194.5,319.5C 194.291,320.086 193.957,320.586 193.5,321C 194.614,322.57 195.947,323.903 197.5,325C 196.186,325.985 195.186,327.152 194.5,328.5C 193.534,325.517 192.534,322.517 191.5,319.5C 186.855,320.7 183.522,320.7 181.5,319.5C 182.263,320.719 183.263,321.719 184.5,322.5C 180.607,324.062 180.774,325.395 185,326.5C 186.505,330.536 188.005,334.536 189.5,338.5C 188.957,338.56 188.624,338.893 188.5,339.5C 189.729,340.281 191.062,340.781 192.5,341C 189.097,341.2 188.097,342.7 189.5,345.5C 187.598,346.511 185.598,346.678 183.5,346C 184.5,345.667 185.5,345.333 186.5,345C 184.798,343.282 182.965,343.115 181,344.5C 180.187,342.564 179.687,340.564 179.5,338.5C 177.606,336.958 178.939,337.291 183.5,339.5C 183.5,338.5 183.5,337.5 183.5,336.5C 180.203,336.671 179.869,336.005 182.5,334.5C 183.646,335.145 184.646,335.978 185.5,337C 184.359,337.741 184.359,338.575 185.5,339.5C 181.614,342.093 182.281,343.093 187.5,342.5C 187.326,339.126 186.826,335.793 186,332.5C 184.89,330.963 183.39,330.297 181.5,330.5C 181.906,328.891 181.906,327.557 181.5,326.5C 180.585,327.328 179.919,328.328 179.5,329.5C 177.424,330.1 175.424,330.433 173.5,330.5C 174.62,332.596 176.12,332.93 178,331.5C 178.507,332.996 178.007,334.163 176.5,335C 177.5,335.333 178.5,335.667 179.5,336C 178.833,336.167 178.167,336.333 177.5,336.5C 175.892,334.738 173.892,333.572 171.5,333C 172.552,331.284 171.886,330.284 169.5,330C 169.833,329.667 170.167,329.333 170.5,329C 169.207,328.51 167.873,328.343 166.5,328.5C 166.413,331.598 166.913,331.932 168,329.5C 168.5,330.667 169.333,331.5 170.5,332C 168,332.833 167.833,334 170,335.5C 171.635,334.151 173.135,334.318 174.5,336C 173.262,335.923 172.262,336.089 171.5,336.5C 172.167,337.167 172.833,337.833 173.5,338.5C 172.289,339.72 172.289,340.887 173.5,342C 171.456,342.048 169.456,341.548 167.5,340.5C 167.167,340.833 166.833,341.167 166.5,341.5C 167.34,342.735 168.34,343.735 169.5,344.5C 169.907,345.762 170.24,347.095 170.5,348.5C 171.243,347.092 172.077,345.759 173,344.5C 173.772,345.849 174.939,346.682 176.5,347C 175.874,347.75 175.374,348.584 175,349.5C 174.692,348.692 174.192,348.025 173.5,347.5C 171.689,348.827 169.689,349.827 167.5,350.5C 167.167,351.167 166.833,351.833 166.5,352.5C 167.729,353.281 169.062,353.781 170.5,354C 169.167,355 167.833,356 166.5,357C 168.218,357.346 169.885,357.846 171.5,358.5C 173.123,357.524 174.457,358.024 175.5,360C 171.123,359.656 166.956,359.156 163,358.5C 162.667,359.167 162.333,359.833 162,360.5C 161.788,357.56 160.288,355.726 157.5,355C 159.329,354.727 160.829,353.893 162,352.5C 162.414,352.957 162.914,353.291 163.5,353.5C 164.833,352.5 164.833,351.5 163.5,350.5C 160.273,352.897 156.606,354.064 152.5,354C 151.716,356.998 150.049,357.831 147.5,356.5C 149.848,355.14 150.015,353.473 148,351.5C 145.772,354.824 143.272,357.991 140.5,361C 141.833,361.667 141.833,362.333 140.5,363C 144.252,363.976 144.918,363.31 142.5,361C 143.674,356.578 145.341,356.411 147.5,360.5C 149.391,358.984 151.391,357.65 153.5,356.5C 154.814,357.313 155.981,358.313 157,359.5C 157.718,358.549 158.551,358.383 159.5,359C 159.056,360.533 158.723,362.033 158.5,363.5C 156.088,362.182 153.754,362.349 151.5,364C 152.451,364.718 152.617,365.551 152,366.5C 150.933,365.809 149.766,365.309 148.5,365C 148.833,364.667 149.167,364.333 149.5,364C 147.104,363.134 146.437,363.634 147.5,365.5C 145.922,366.298 144.256,366.798 142.5,367C 142.833,367.333 143.167,367.667 143.5,368C 141.842,368.725 141.342,369.892 142,371.5C 142.333,371.167 142.667,370.833 143,370.5C 145.003,372.922 147.503,373.755 150.5,373C 149.04,372.189 148.707,371.355 149.5,370.5C 150.7,371.531 152.034,372.365 153.5,373C 152.833,373.333 152.167,373.667 151.5,374C 152.667,374.5 153.5,375.333 154,376.5C 155.049,375.483 156.216,375.316 157.5,376C 156.833,376.333 156.167,376.667 155.5,377C 157.81,377.497 160.143,377.663 162.5,377.5C 162.5,377.833 162.5,378.167 162.5,378.5C 155.37,378.883 148.703,377.383 142.5,374C 120.159,373.833 97.8259,373.333 75.5,372.5C 96.1586,371.667 116.825,371.167 137.5,371C 125.931,363.06 114.598,354.893 103.5,346.5C 87.6614,333.165 74.1614,317.832 63,300.5C 47.2573,276.288 44.2573,250.622 54,223.5C 70.1053,196.239 93.2719,187.739 123.5,198C 140.295,206.467 151.795,219.633 158,237.5C 170.538,203.315 194.705,189.482 230.5,196C 248.568,202.404 260.068,214.904 265,233.5C 266.877,241.73 267.71,250.063 267.5,258.5 Z"/></g>
<g><path style="opacity:1" fill="#5ee06a" d="M 484.5,193.5 C 487.62,193.156 490.453,193.823 493,195.5C 496.717,192.916 500.383,192.916 504,195.5C 504.667,196.833 504.667,198.167 504,199.5C 500.678,202.988 497.178,206.321 493.5,209.5C 489.558,207.062 486.058,204.062 483,200.5C 482.167,197.829 482.667,195.496 484.5,193.5 Z"/></g>
<g><path style="opacity:1" fill="#fcc5b8" d="M 384.5,242.5 C 382.833,246.5 381.167,250.5 379.5,254.5C 372.805,255.651 367.805,253.318 364.5,247.5C 361.562,246.511 358.562,245.844 355.5,245.5C 351.34,243.327 347.84,240.327 345,236.5C 342.718,228.349 341.885,220.016 342.5,211.5C 351.635,211.232 359.968,208.566 367.5,203.5C 371.91,209.058 377.577,212.891 384.5,215C 382.107,220.621 380.441,226.454 379.5,232.5C 379.542,235.259 380.042,237.925 381,240.5C 381.816,241.823 382.983,242.489 384.5,242.5 Z"/></g>
<g><path style="opacity:0.965" fill="#935442" d="M 411.5,207.5 C 416.58,216.976 418.08,226.976 416,237.5C 415.003,239.323 413.836,240.99 412.5,242.5C 406.281,245.718 399.614,247.052 392.5,246.5C 398.271,233.161 404.605,220.161 411.5,207.5 Z"/></g>
<g><path style="opacity:0.752" fill="#bffe71" d="M 473.5,214.5 C 477.832,214.279 481.832,215.279 485.5,217.5C 485.833,218.833 486.167,218.833 486.5,217.5C 489.308,216.116 492.308,215.449 495.5,215.5C 504.298,215.977 507.965,220.644 506.5,229.5C 506.013,230.473 505.513,231.473 505,232.5C 499.198,237.3 493.698,242.467 488.5,248C 487.167,248.667 485.833,248.667 484.5,248C 477.667,242.5 471.5,236.333 466,229.5C 464.289,222.254 466.789,217.254 473.5,214.5 Z M 490.5,219.5 C 495.068,221.403 499.402,223.736 503.5,226.5C 502.523,229.989 500.523,232.823 497.5,235C 493.868,237.63 490.535,240.63 487.5,244C 486.833,244.667 486.167,244.667 485.5,244C 478.57,238.907 472.904,232.741 468.5,225.5C 469.549,220.951 472.382,218.285 477,217.5C 480.512,218.512 483.678,220.178 486.5,222.5C 487.852,221.476 489.185,220.476 490.5,219.5 Z"/></g>
<g><path style="opacity:1" fill="#61e06a" d="M 503.5,226.5 C 499.402,223.736 495.068,221.403 490.5,219.5C 495.656,216.368 500.156,217.368 504,222.5C 504.765,224.066 504.598,225.399 503.5,226.5 Z"/></g>
<g><path style="opacity:1" fill="#9e5e4c" d="M 347.5,218.5 C 348.5,218.5 349.5,218.5 350.5,218.5C 349.754,222.31 348.754,222.31 347.5,218.5 Z"/></g>
<g><path style="opacity:1" fill="#a1614f" d="M 361.5,218.5 C 362.5,218.5 363.5,218.5 364.5,218.5C 364.5,219.5 364.5,220.5 364.5,221.5C 363.5,221.5 362.5,221.5 361.5,221.5C 361.5,220.5 361.5,219.5 361.5,218.5 Z"/></g>
<g><path style="opacity:1" fill="#a16150" d="M 352.5,221.5 C 353.552,221.351 354.552,221.517 355.5,222C 354.167,223.333 354.167,224.667 355.5,226C 354.551,226.617 353.718,226.451 353,225.5C 352.51,224.207 352.343,222.873 352.5,221.5 Z"/></g>
<g><path style="opacity:1" fill="#a46453" d="M 349.5,227.5 C 353.724,231.264 357.89,231.264 362,227.5C 361.871,230.768 360.037,232.101 356.5,231.5C 352.988,231.919 350.654,230.586 349.5,227.5 Z"/></g>
<g><path style="opacity:0.69" fill="#c0ff71" d="M 458.5,241.5 C 461.313,241.548 463.979,242.215 466.5,243.5C 472.407,240.102 476.907,241.435 480,247.5C 480.635,249.635 480.301,251.635 479,253.5C 475.5,257 472,260.5 468.5,264C 467.167,264.667 465.833,264.667 464.5,264C 460.613,260.113 456.779,256.279 453,252.5C 451.697,247.105 453.53,243.438 458.5,241.5 Z M 457.5,245.5 C 460.765,245.208 463.765,245.875 466.5,247.5C 468.915,245.784 471.582,245.284 474.5,246C 476.325,247.466 476.825,249.299 476,251.5C 472.985,254.683 469.818,257.683 466.5,260.5C 462.124,257.491 458.457,253.825 455.5,249.5C 456.18,248.14 456.847,246.807 457.5,245.5 Z"/></g>
<g><path style="opacity:0.986" fill="#11be64" d="M 412.5,242.5 C 417.315,244.072 421.648,246.405 425.5,249.5C 414.33,247.586 407.997,252.253 406.5,263.5C 406.815,269.41 408.149,275.077 410.5,280.5C 406.369,280.52 402.369,279.354 398.5,277C 397.465,271.899 395.632,267.066 393,262.5C 391.266,260.549 389.099,259.549 386.5,259.5C 388.229,255.042 390.229,250.709 392.5,246.5C 399.614,247.052 406.281,245.718 412.5,242.5 Z"/></g>
<g><path style="opacity:0.994" fill="#08bf63" d="M 355.5,245.5 C 358.562,245.844 361.562,246.511 364.5,247.5C 367.805,253.318 372.805,255.651 379.5,254.5C 378.737,256.368 377.737,258.035 376.5,259.5C 374.119,258.17 371.786,258.336 369.5,260C 367.747,264.238 365.414,268.072 362.5,271.5C 362.167,271.5 361.833,271.5 361.5,271.5C 359.827,270.657 358.66,269.324 358,267.5C 357.674,263.47 357.674,259.47 358,255.5C 353.82,252.468 350.82,253.468 349,258.5C 347.215,267.252 350.049,273.919 357.5,278.5C 361.471,288.974 368.471,296.808 378.5,302C 399.996,314.733 422.996,318.9 447.5,314.5C 446.751,320.236 445.584,325.903 444,331.5C 439.286,335.683 433.786,338.016 427.5,338.5C 395.765,341.059 364.431,338.726 333.5,331.5C 325.511,330.21 322.511,325.544 324.5,317.5C 325.607,292.832 333.607,270.832 348.5,251.5C 350.36,250.061 352.027,248.395 353.5,246.5C 354.492,246.672 355.158,246.338 355.5,245.5 Z"/></g>
<g><path style="opacity:0.991" fill="#fdc6ba" d="M 425.5,249.5 C 430.578,251.132 434.745,254.132 438,258.5C 450.312,273.428 455.312,290.428 453,309.5C 451.69,311.739 449.857,313.406 447.5,314.5C 422.996,318.9 399.996,314.733 378.5,302C 368.471,296.808 361.471,288.974 357.5,278.5C 357.957,276.227 359.29,274.894 361.5,274.5C 361.624,278.55 363.291,280.883 366.5,281.5C 364.187,278.563 362.854,275.23 362.5,271.5C 365.414,268.072 367.747,264.238 369.5,260C 371.786,258.336 374.119,258.17 376.5,259.5C 377.901,262.634 379.568,265.634 381.5,268.5C 381.895,264.704 383.561,261.704 386.5,259.5C 389.099,259.549 391.266,260.549 393,262.5C 395.632,267.066 397.465,271.899 398.5,277C 402.369,279.354 406.369,280.52 410.5,280.5C 408.149,275.077 406.815,269.41 406.5,263.5C 407.997,252.253 414.33,247.586 425.5,249.5 Z"/></g>
<g><path style="opacity:0.976" fill="#f4bdb0" d="M 348.5,251.5 C 333.607,270.832 325.607,292.832 324.5,317.5C 316.195,319.141 308.195,318.475 300.5,315.5C 300.43,313.398 299.93,311.398 299,309.5C 296.681,310.296 294.514,309.796 292.5,308C 294.679,306.013 296.512,306.18 298,308.5C 300.213,306.751 301.213,304.751 301,302.5C 301.249,303.624 301.749,304.624 302.5,305.5C 302.833,305.333 303.167,305.167 303.5,305C 303.5,303.333 303.5,301.667 303.5,300C 306.413,298.545 308.413,296.212 309.5,293C 309.167,292.667 308.833,292.333 308.5,292C 310.5,291.333 312.5,290.667 314.5,290C 312.697,289.363 311.364,288.197 310.5,286.5C 312.083,286.382 313.749,285.549 315.5,284C 311.893,284.592 311.726,283.759 315,281.5C 315.692,280.563 315.525,279.897 314.5,279.5C 321.636,272.533 328.97,265.7 336.5,259C 340.052,255.727 344.052,253.227 348.5,251.5 Z"/></g>
<g><path style="opacity:1" fill="#07422f" d="M 361.5,271.5 C 361.5,272.5 361.5,273.5 361.5,274.5C 359.29,274.894 357.957,276.227 357.5,278.5C 350.049,273.919 347.215,267.252 349,258.5C 350.82,253.468 353.82,252.468 358,255.5C 357.674,259.47 357.674,263.47 358,267.5C 358.66,269.324 359.827,270.657 361.5,271.5 Z"/></g>
<g><path style="opacity:1" fill="#013e2c" d="M 250.5,280.5 C 250.5,283.833 250.5,287.167 250.5,290.5C 231.5,290.5 212.5,290.5 193.5,290.5C 191.983,290.489 190.816,289.823 190,288.5C 188.291,285.582 186.458,282.748 184.5,280C 183.833,279.333 183.167,279.333 182.5,280C 172.292,291.206 162.459,302.706 153,314.5C 150.209,318.554 146.875,319.22 143,316.5C 133.833,300.829 124.167,285.496 114,270.5C 110.545,277.247 106.711,283.747 102.5,290C 90.8381,290.5 79.1714,290.667 67.5,290.5C 67.5,287.167 67.5,283.833 67.5,280.5C 77.5222,280.832 87.5222,280.499 97.5,279.5C 101.333,271.833 105.167,264.167 109,256.5C 112.619,253.657 115.952,253.99 119,257.5C 128.271,273.1 137.938,288.433 148,303.5C 159.04,291.462 169.707,279.129 180,266.5C 182.6,264.109 185.267,264.109 188,266.5C 190.833,270.833 193.667,275.167 196.5,279.5C 214.488,280.5 232.488,280.833 250.5,280.5 Z"/></g>
<g><path style="opacity:0.975" fill="#fdc6ba" d="M 267.5,258.5 C 276.052,261.266 282.386,266.599 286.5,274.5C 293.33,278.055 300.497,280.721 308,282.5C 310.253,281.623 312.419,280.623 314.5,279.5C 315.525,279.897 315.692,280.563 315,281.5C 311.726,283.759 311.893,284.592 315.5,284C 313.749,285.549 312.083,286.382 310.5,286.5C 311.364,288.197 312.697,289.363 314.5,290C 312.5,290.667 310.5,291.333 308.5,292C 308.833,292.333 309.167,292.667 309.5,293C 308.413,296.212 306.413,298.545 303.5,300C 303.5,301.667 303.5,303.333 303.5,305C 303.167,305.167 302.833,305.333 302.5,305.5C 301.749,304.624 301.249,303.624 301,302.5C 301.213,304.751 300.213,306.751 298,308.5C 296.512,306.18 294.679,306.013 292.5,308C 294.514,309.796 296.681,310.296 299,309.5C 299.93,311.398 300.43,313.398 300.5,315.5C 284.347,310.923 269.347,303.923 255.5,294.5C 257.391,291.386 258.724,288.052 259.5,284.5C 260.935,282.402 262.102,280.069 263,277.5C 263.781,276.056 263.614,274.723 262.5,273.5C 257.267,271.762 252.6,269.095 248.5,265.5C 246.575,261.617 247.575,258.784 251.5,257C 256.883,256.775 262.217,257.275 267.5,258.5 Z"/></g>
<g><path style="opacity:1" fill="#21b160" d="M 248.5,265.5 C 252.6,269.095 257.267,271.762 262.5,273.5C 263.614,274.723 263.781,276.056 263,277.5C 262.102,280.069 260.935,282.402 259.5,284.5C 258.504,284.586 257.671,284.252 257,283.5C 256.517,284.448 256.351,285.448 256.5,286.5C 254.61,286.297 253.11,286.963 252,288.5C 251.064,285.208 251.564,282.208 253.5,279.5C 253.376,278.893 253.043,278.56 252.5,278.5C 251.5,278.5 250.5,278.5 249.5,278.5C 249.286,276.856 249.62,275.356 250.5,274C 249.09,273.632 248.09,272.799 247.5,271.5C 247.316,269.585 247.65,267.585 248.5,265.5 Z"/></g>
<g><path style="opacity:1" fill="#a1604f" d="M 367.5,266.5 C 369.247,268.428 370.913,270.594 372.5,273C 369.107,272.459 367.44,270.293 367.5,266.5 Z"/></g>
<g><path style="opacity:1" fill="#a76a59" d="M 361.5,271.5 C 361.833,271.5 362.167,271.5 362.5,271.5C 362.854,275.23 364.187,278.563 366.5,281.5C 363.291,280.883 361.624,278.55 361.5,274.5C 361.5,273.5 361.5,272.5 361.5,271.5 Z"/></g>
<g><path style="opacity:1" fill="#137b47" d="M 193.5,290.5 C 212.5,290.5 231.5,290.5 250.5,290.5C 248.5,291.167 246.5,291.833 244.5,292.5C 227.565,291.958 210.565,291.291 193.5,290.5 Z"/></g>
<g><path style="opacity:1" fill="#1caf5e" d="M 208.5,313.5 C 209.847,314.171 211.014,314.171 212,313.5C 212.617,314.449 212.451,315.282 211.5,316C 212.5,316.833 213.5,317.667 214.5,318.5C 212.204,319.368 211.537,320.702 212.5,322.5C 211.522,322.811 210.855,323.478 210.5,324.5C 211.428,325.768 211.595,327.101 211,328.5C 210.259,327.359 209.425,327.359 208.5,328.5C 207.396,327.369 207.729,326.535 209.5,326C 207.597,325.226 205.93,325.56 204.5,327C 207.446,329.149 207.613,330.982 205,332.5C 203.812,331.437 203.312,330.103 203.5,328.5C 200.959,330.599 197.959,331.932 194.5,332.5C 194.5,331.167 194.5,329.833 194.5,328.5C 195.186,327.152 196.186,325.985 197.5,325C 195.947,323.903 194.614,322.57 193.5,321C 193.957,320.586 194.291,320.086 194.5,319.5C 192.833,318.833 191.167,318.167 189.5,317.5C 191.805,315.314 191.805,312.981 189.5,310.5C 189.833,310.167 190.167,309.833 190.5,309.5C 191.386,310.325 191.719,311.325 191.5,312.5C 193.547,312.489 195.547,312.156 197.5,311.5C 198.19,312.488 199.357,313.488 201,314.5C 201.683,309.342 202.516,309.342 203.5,314.5C 204.552,314.351 205.552,314.517 206.5,315C 206.499,316.399 206.165,317.899 205.5,319.5C 206,319.833 206.5,320.167 207,320.5C 208.722,320.389 208.888,319.889 207.5,319C 210.044,317.437 210.044,315.937 207.5,314.5C 207.624,313.893 207.957,313.56 208.5,313.5 Z"/></g>
<g><path style="opacity:1" fill="#26a55b" d="M 235.5,299.5 C 235.059,301.517 234.892,303.517 235,305.5C 236.692,303.755 238.525,303.422 240.5,304.5C 239.311,305.429 237.978,305.762 236.5,305.5C 236.36,307.124 237.027,308.29 238.5,309C 237.464,310.617 236.297,310.784 235,309.5C 235.833,315.187 234.666,315.687 231.5,311C 235.369,307.832 234.703,306.165 229.5,306C 229.833,306.333 230.167,306.667 230.5,307C 229.333,308.5 228.167,310 227,311.5C 226.71,309.956 226.044,308.623 225,307.5C 225.794,309.486 225.294,311.319 223.5,313C 224.696,313.654 224.696,314.154 223.5,314.5C 222.833,313.5 222.167,312.5 221.5,311.5C 221.167,312 220.833,312.5 220.5,313C 221.322,315.434 221.656,317.934 221.5,320.5C 220.5,320.5 219.5,320.5 218.5,320.5C 218.351,321.552 218.517,322.552 219,323.5C 219.667,322.167 220.333,322.167 221,323.5C 221.98,321.941 222.813,320.274 223.5,318.5C 223.833,318.667 224.167,318.833 224.5,319C 223.726,321.405 223.226,323.905 223,326.5C 222.577,325.044 221.744,324.544 220.5,325C 219.767,326.535 219.767,328.368 220.5,330.5C 219.5,331.833 218.5,331.833 217.5,330.5C 218.799,327.566 218.132,325.066 215.5,323C 214.552,322.517 213.552,322.351 212.5,322.5C 211.537,320.702 212.204,319.368 214.5,318.5C 213.5,317.667 212.5,316.833 211.5,316C 212.451,315.282 212.617,314.449 212,313.5C 211.014,314.171 209.847,314.171 208.5,313.5C 211.625,312.9 211.958,311.733 209.5,310C 211.329,309.727 212.829,308.893 214,307.5C 214.645,308.646 215.478,309.646 216.5,310.5C 215.313,310.554 213.98,310.887 212.5,311.5C 212.977,312.931 213.643,314.264 214.5,315.5C 215.308,315.192 215.975,314.692 216.5,314C 214.068,312.913 214.402,312.413 217.5,312.5C 217.413,309.402 217.913,309.068 219,311.5C 220.487,310.747 220.654,309.914 219.5,309C 220.833,308.667 222.167,308.333 223.5,308C 222.483,306.951 222.316,305.784 223,304.5C 223.333,305.167 223.667,305.833 224,306.5C 224.923,305.241 225.757,303.908 226.5,302.5C 227.086,302.709 227.586,303.043 228,303.5C 228.5,301.667 229.667,300.5 231.5,300C 231.167,299.667 230.833,299.333 230.5,299C 232.107,299.019 233.774,299.185 235.5,299.5 Z"/></g>
<g><path style="opacity:0.991" fill="#95f36e" d="M 333.5,331.5 C 364.431,338.726 395.765,341.059 427.5,338.5C 430.69,345.904 433.19,353.571 435,361.5C 436.662,372.984 438.829,384.317 441.5,395.5C 439.71,396.013 438.044,396.513 436.5,397C 437.167,395.333 437.833,393.667 438.5,392C 436.152,391.89 434.652,390.723 434,388.5C 431.459,390.196 428.959,392.029 426.5,394C 425.552,394.483 424.552,394.649 423.5,394.5C 423.688,392.897 423.188,391.563 422,390.5C 419.636,393.699 417.47,397.032 415.5,400.5C 414.833,399.167 414.167,397.833 413.5,396.5C 412.808,397.025 412.308,397.692 412,398.5C 410.184,396.559 408.184,395.892 406,396.5C 403.648,395.527 401.315,394.527 399,393.5C 397.521,394.873 397.688,396.373 399.5,398C 398.167,398.667 398.167,399.333 399.5,400C 397.314,400.604 397.148,401.77 399,403.5C 399.333,402.833 399.667,402.167 400,401.5C 400.333,404.5 400.667,407.5 401,410.5C 402.008,410.018 403.175,409.852 404.5,410C 404.167,409.667 403.833,409.333 403.5,409C 403.955,405.258 405.288,404.758 407.5,407.5C 406.125,409.163 406.458,410.497 408.5,411.5C 407.265,414.044 406.099,414.044 405,411.5C 403.527,411.132 402.027,411.632 400.5,413C 401.759,413.923 403.092,414.757 404.5,415.5C 403.271,416.281 401.938,416.781 400.5,417C 403.097,417.779 403.097,418.279 400.5,418.5C 399.711,418.783 399.044,419.283 398.5,420C 400.412,421.2 401.745,422.867 402.5,425C 401.975,425.692 401.308,426.192 400.5,426.5C 399.594,424.614 398.594,422.78 397.5,421C 396.167,420.333 394.833,420.333 393.5,421C 397.915,421.823 398.248,422.99 394.5,424.5C 395.689,425.429 397.022,425.762 398.5,425.5C 398.48,427.143 399.147,428.476 400.5,429.5C 398.376,430.149 396.376,430.983 394.5,432C 395.449,432.617 396.282,432.451 397,431.5C 397.658,433.108 397.158,434.275 395.5,435C 396.743,436.154 397.743,437.488 398.5,439C 397.833,439.667 397.167,439.667 396.5,439C 395.624,437.414 394.624,435.914 393.5,434.5C 393.025,436.106 391.691,437.606 389.5,439C 388.552,439.483 387.552,439.649 386.5,439.5C 382.689,428.236 379.189,416.903 376,405.5C 374.931,413.131 374.431,420.798 374.5,428.5C 373.622,430.873 371.955,431.706 369.5,431C 371.595,430.444 371.762,429.944 370,429.5C 368.941,429.63 368.108,430.13 367.5,431C 368.5,432 369.5,433 370.5,434C 369.376,434.249 368.376,434.749 367.5,435.5C 371.426,436.342 372.259,438.342 370,441.5C 369.333,440.167 368.667,440.167 368,441.5C 367.847,436.184 366.847,436.517 365,442.5C 363.266,441.362 361.432,440.862 359.5,441C 360.997,442.871 362.997,443.871 365.5,444C 362.878,445.805 360.211,445.805 357.5,444C 358.552,442.284 357.886,441.284 355.5,441C 355.833,440.667 356.167,440.333 356.5,440C 354.343,439.922 352.343,439.755 350.5,439.5C 349.194,440.912 348.36,442.579 348,444.5C 346.333,444.5 344.667,444.5 343,444.5C 342.383,445.449 342.549,446.282 343.5,447C 348.083,446.388 349.916,448.221 349,452.5C 348.692,451.692 348.192,451.025 347.5,450.5C 347.331,451.397 346.998,452.397 346.5,453.5C 343.93,454.634 341.264,455.468 338.5,456C 338.833,456.333 339.167,456.667 339.5,457C 338.382,458.074 337.382,459.24 336.5,460.5C 336.167,460.167 335.833,459.833 335.5,459.5C 335.864,457.267 336.864,455.434 338.5,454C 338.741,452.438 338.241,450.938 337,449.5C 335.394,453.031 334.228,456.698 333.5,460.5C 335.353,461.76 337.186,461.76 339,460.5C 339.5,461 340,461.5 340.5,462C 339.376,462.249 338.376,462.749 337.5,463.5C 338.833,464.833 338.833,466.167 337.5,467.5C 338.274,468.711 339.107,468.711 340,467.5C 340.464,468.094 340.631,468.761 340.5,469.5C 333.729,468.243 327.063,466.576 320.5,464.5C 317.564,462.692 314.564,460.859 311.5,459C 309.951,457.786 308.785,456.286 308,454.5C 306.452,445.562 306.119,436.562 307,427.5C 308.696,412.327 311.362,397.327 315,382.5C 320.685,365.274 326.852,348.274 333.5,331.5 Z"/></g>
<g><path style="opacity:0.997" fill="#379857" d="M 252.5,278.5 C 253.043,278.56 253.376,278.893 253.5,279.5C 251.564,282.208 251.064,285.208 252,288.5C 253.11,286.963 254.61,286.297 256.5,286.5C 256.351,285.448 256.517,284.448 257,283.5C 257.671,284.252 258.504,284.586 259.5,284.5C 258.724,288.052 257.391,291.386 255.5,294.5C 251.618,301.885 247.118,308.885 242,315.5C 222.209,338.303 199.709,357.803 174.5,374C 172.35,375.411 170.016,376.245 167.5,376.5C 161.617,376.272 157.284,373.605 154.5,368.5C 155.325,367.614 156.325,367.281 157.5,367.5C 157.351,368.552 157.517,369.552 158,370.5C 158.333,370.167 158.667,369.833 159,369.5C 160.83,373.144 162.497,372.81 164,368.5C 165.098,369.967 166.598,370.801 168.5,371C 167.007,372.368 165.507,372.535 164,371.5C 163.776,373.131 164.61,374.131 166.5,374.5C 167.59,373.273 168.924,372.44 170.5,372C 169.167,370.667 169.167,369.333 170.5,368C 162.024,367.691 161.524,366.191 169,363.5C 171.048,365.787 173.215,365.954 175.5,364C 173.099,363.195 173.266,362.362 176,361.5C 178.288,364.778 181.121,365.278 184.5,363C 182.048,362.71 179.715,362.044 177.5,361C 179.715,360.83 181.715,360.163 183.5,359C 180.307,359.27 177.307,358.27 174.5,356C 175,355.5 175.5,355 176,354.5C 176.837,356.007 178.004,356.507 179.5,356C 176.814,352.524 177.147,352.024 180.5,354.5C 180.833,354.167 181.167,353.833 181.5,353.5C 180.115,352.449 179.115,351.116 178.5,349.5C 179.325,348.614 180.325,348.281 181.5,348.5C 181.565,351.998 182.899,352.498 185.5,350C 184.167,349.333 184.167,348.667 185.5,348C 187.821,347.163 190.155,346.83 192.5,347C 191.833,347.333 191.167,347.667 190.5,348C 191.579,348.956 192.745,349.789 194,350.5C 194.251,348.567 194.751,346.734 195.5,345C 193.575,345.135 191.575,345.302 189.5,345.5C 188.097,342.7 189.097,341.2 192.5,341C 191.062,340.781 189.729,340.281 188.5,339.5C 188.624,338.893 188.957,338.56 189.5,338.5C 192.855,340.633 195.855,340.466 198.5,338C 196.667,338.167 194.833,338.333 193,338.5C 191.148,336.77 191.314,335.604 193.5,335C 191.109,333.691 191.109,332.691 193.5,332C 193.167,331 192.833,330 192.5,329C 193.094,328.536 193.761,328.369 194.5,328.5C 194.5,329.833 194.5,331.167 194.5,332.5C 197.959,331.932 200.959,330.599 203.5,328.5C 203.312,330.103 203.812,331.437 205,332.5C 207.613,330.982 207.446,329.149 204.5,327C 205.93,325.56 207.597,325.226 209.5,326C 207.729,326.535 207.396,327.369 208.5,328.5C 209.425,327.359 210.259,327.359 211,328.5C 211.595,327.101 211.428,325.768 210.5,324.5C 210.855,323.478 211.522,322.811 212.5,322.5C 213.552,322.351 214.552,322.517 215.5,323C 218.132,325.066 218.799,327.566 217.5,330.5C 218.5,331.833 219.5,331.833 220.5,330.5C 219.767,328.368 219.767,326.535 220.5,325C 221.744,324.544 222.577,325.044 223,326.5C 223.226,323.905 223.726,321.405 224.5,319C 224.167,318.833 223.833,318.667 223.5,318.5C 222.813,320.274 221.98,321.941 221,323.5C 220.333,322.167 219.667,322.167 219,323.5C 218.517,322.552 218.351,321.552 218.5,320.5C 219.5,320.5 220.5,320.5 221.5,320.5C 221.656,317.934 221.322,315.434 220.5,313C 220.833,312.5 221.167,312 221.5,311.5C 222.167,312.5 222.833,313.5 223.5,314.5C 224.696,314.154 224.696,313.654 223.5,313C 225.294,311.319 225.794,309.486 225,307.5C 226.044,308.623 226.71,309.956 227,311.5C 228.167,310 229.333,308.5 230.5,307C 230.167,306.667 229.833,306.333 229.5,306C 234.703,306.165 235.369,307.832 231.5,311C 234.666,315.687 235.833,315.187 235,309.5C 236.297,310.784 237.464,310.617 238.5,309C 237.027,308.29 236.36,307.124 236.5,305.5C 237.978,305.762 239.311,305.429 240.5,304.5C 238.525,303.422 236.692,303.755 235,305.5C 234.892,303.517 235.059,301.517 235.5,299.5C 235.938,299.565 236.272,299.399 236.5,299C 235.692,298.692 235.025,298.192 234.5,297.5C 237.129,295.95 238.963,296.616 240,299.5C 240,297.5 240,295.5 240,293.5C 240.667,294.833 241.333,296.167 242,297.5C 243.098,296.033 244.598,295.199 246.5,295C 245.167,294.667 243.833,294.333 242.5,294C 243.416,293.722 244.082,293.222 244.5,292.5C 246.5,291.833 248.5,291.167 250.5,290.5C 250.5,287.167 250.5,283.833 250.5,280.5C 251.5,280.167 252.167,279.5 252.5,278.5 Z"/></g>
<g><path style="opacity:1" fill="#1cae5e" d="M 194.5,328.5 C 193.761,328.369 193.094,328.536 192.5,329C 192.833,330 193.167,331 193.5,332C 191.109,332.691 191.109,333.691 193.5,335C 191.314,335.604 191.148,336.77 193,338.5C 194.833,338.333 196.667,338.167 198.5,338C 195.855,340.466 192.855,340.633 189.5,338.5C 188.005,334.536 186.505,330.536 185,326.5C 180.774,325.395 180.607,324.062 184.5,322.5C 183.263,321.719 182.263,320.719 181.5,319.5C 183.522,320.7 186.855,320.7 191.5,319.5C 192.534,322.517 193.534,325.517 194.5,328.5 Z"/></g>
<g><path style="opacity:0.987" fill="#96f36e" d="M 103.5,346.5 C 114.598,354.893 125.931,363.06 137.5,371C 116.825,371.167 96.1586,371.667 75.5,372.5C 97.8259,373.333 120.159,373.833 142.5,374C 148.703,377.383 155.37,378.883 162.5,378.5C 163.648,382.981 163.815,387.648 163,392.5C 161.74,395.428 159.573,397.261 156.5,398C 161.693,399.543 164.026,403.043 163.5,408.5C 162.732,409.263 162.232,410.263 162,411.5C 161.529,409.754 160.862,408.087 160,406.5C 159.667,406.833 159.333,407.167 159,407.5C 158.585,405.709 157.585,404.376 156,403.5C 155.019,406.689 153.686,407.022 152,404.5C 151.323,406.982 152.156,408.815 154.5,410C 153.167,410.667 151.833,411.333 150.5,412C 152.402,412.199 153.902,413.033 155,414.5C 156.83,412.842 158.164,410.842 159,408.5C 159.692,409.025 160.192,409.692 160.5,410.5C 159.05,411.85 158.383,413.516 158.5,415.5C 152.252,414.027 147.585,416.027 144.5,421.5C 122.844,422.5 101.177,422.833 79.5,422.5C 78.391,422.443 77.391,422.11 76.5,421.5C 76.5,420.5 76.5,419.5 76.5,418.5C 80.6866,412.127 84.3533,405.461 87.5,398.5C 109.51,398.833 131.51,398.5 153.5,397.5C 131.844,396.5 110.177,396.167 88.5,396.5C 91.7451,384.576 87.7451,381.076 76.5,386C 73.2804,388.437 69.947,390.603 66.5,392.5C 65.1095,387.16 65.2762,381.827 67,376.5C 68.214,374.951 69.714,373.785 71.5,373C 69.2911,371.127 67.4578,368.96 66,366.5C 65.112,361.382 65.4453,356.382 67,351.5C 68.762,348.732 71.262,347.232 74.5,347C 84.1609,346.5 93.8276,346.334 103.5,346.5 Z"/></g>
<g><path style="opacity:1" fill="#1baf5e" d="M 169.5,344.5 C 165.731,347.896 161.398,349.229 156.5,348.5C 155.833,349.167 155.167,349.833 154.5,350.5C 154.002,349.397 153.669,348.397 153.5,347.5C 152.614,348.325 152.281,349.325 152.5,350.5C 150.833,350.5 149.167,350.5 147.5,350.5C 148.138,348.54 148.138,346.707 147.5,345C 149.317,343.2 150.484,341.034 151,338.5C 150.843,341.991 152.343,343.824 155.5,344C 154.397,342.32 154.73,340.82 156.5,339.5C 157.386,340.325 157.719,341.325 157.5,342.5C 161.223,342.642 162.056,341.309 160,338.5C 159.667,338.833 159.333,339.167 159,339.5C 157.266,338.751 155.433,338.251 153.5,338C 154.623,336.956 155.956,336.29 157.5,336C 156.137,333.871 156.471,333.371 158.5,334.5C 159.167,333.833 159.833,333.167 160.5,332.5C 161.506,332.938 161.506,333.604 160.5,334.5C 164.76,335.928 166.593,338.928 166,343.5C 167.011,344.337 168.178,344.67 169.5,344.5 Z"/></g>
<g><path style="opacity:1" fill="#28a55b" d="M 189.5,345.5 C 191.575,345.302 193.575,345.135 195.5,345C 194.751,346.734 194.251,348.567 194,350.5C 192.745,349.789 191.579,348.956 190.5,348C 191.167,347.667 191.833,347.333 192.5,347C 190.155,346.83 187.821,347.163 185.5,348C 184.167,348.667 184.167,349.333 185.5,350C 182.899,352.498 181.565,351.998 181.5,348.5C 180.325,348.281 179.325,348.614 178.5,349.5C 179.115,351.116 180.115,352.449 181.5,353.5C 181.167,353.833 180.833,354.167 180.5,354.5C 177.147,352.024 176.814,352.524 179.5,356C 178.004,356.507 176.837,356.007 176,354.5C 175.5,355 175,355.5 174.5,356C 177.307,358.27 180.307,359.27 183.5,359C 181.715,360.163 179.715,360.83 177.5,361C 179.715,362.044 182.048,362.71 184.5,363C 181.121,365.278 178.288,364.778 176,361.5C 173.266,362.362 173.099,363.195 175.5,364C 173.215,365.954 171.048,365.787 169,363.5C 161.524,366.191 162.024,367.691 170.5,368C 169.167,369.333 169.167,370.667 170.5,372C 168.924,372.44 167.59,373.273 166.5,374.5C 164.61,374.131 163.776,373.131 164,371.5C 165.507,372.535 167.007,372.368 168.5,371C 166.598,370.801 165.098,369.967 164,368.5C 162.497,372.81 160.83,373.144 159,369.5C 158.667,369.833 158.333,370.167 158,370.5C 157.517,369.552 157.351,368.552 157.5,367.5C 156.325,367.281 155.325,367.614 154.5,368.5C 157.284,373.605 161.617,376.272 167.5,376.5C 166.081,377.451 164.415,377.784 162.5,377.5C 160.143,377.663 157.81,377.497 155.5,377C 156.167,376.667 156.833,376.333 157.5,376C 156.216,375.316 155.049,375.483 154,376.5C 153.5,375.333 152.667,374.5 151.5,374C 152.167,373.667 152.833,373.333 153.5,373C 152.034,372.365 150.7,371.531 149.5,370.5C 148.707,371.355 149.04,372.189 150.5,373C 147.503,373.755 145.003,372.922 143,370.5C 142.667,370.833 142.333,371.167 142,371.5C 141.342,369.892 141.842,368.725 143.5,368C 143.167,367.667 142.833,367.333 142.5,367C 144.256,366.798 145.922,366.298 147.5,365.5C 146.437,363.634 147.104,363.134 149.5,364C 149.167,364.333 148.833,364.667 148.5,365C 149.766,365.309 150.933,365.809 152,366.5C 152.617,365.551 152.451,364.718 151.5,364C 153.754,362.349 156.088,362.182 158.5,363.5C 158.723,362.033 159.056,360.533 159.5,359C 158.551,358.383 157.718,358.549 157,359.5C 155.981,358.313 154.814,357.313 153.5,356.5C 151.391,357.65 149.391,358.984 147.5,360.5C 145.341,356.411 143.674,356.578 142.5,361C 144.918,363.31 144.252,363.976 140.5,363C 141.833,362.333 141.833,361.667 140.5,361C 143.272,357.991 145.772,354.824 148,351.5C 150.015,353.473 149.848,355.14 147.5,356.5C 150.049,357.831 151.716,356.998 152.5,354C 156.606,354.064 160.273,352.897 163.5,350.5C 164.833,351.5 164.833,352.5 163.5,353.5C 162.914,353.291 162.414,352.957 162,352.5C 160.829,353.893 159.329,354.727 157.5,355C 160.288,355.726 161.788,357.56 162,360.5C 162.333,359.833 162.667,359.167 163,358.5C 166.956,359.156 171.123,359.656 175.5,360C 174.457,358.024 173.123,357.524 171.5,358.5C 169.885,357.846 168.218,357.346 166.5,357C 167.833,356 169.167,355 170.5,354C 169.062,353.781 167.729,353.281 166.5,352.5C 166.833,351.833 167.167,351.167 167.5,350.5C 169.689,349.827 171.689,348.827 173.5,347.5C 174.192,348.025 174.692,348.692 175,349.5C 175.374,348.584 175.874,347.75 176.5,347C 174.939,346.682 173.772,345.849 173,344.5C 172.077,345.759 171.243,347.092 170.5,348.5C 170.24,347.095 169.907,345.762 169.5,344.5C 168.34,343.735 167.34,342.735 166.5,341.5C 166.833,341.167 167.167,340.833 167.5,340.5C 169.456,341.548 171.456,342.048 173.5,342C 172.289,340.887 172.289,339.72 173.5,338.5C 172.833,337.833 172.167,337.167 171.5,336.5C 172.262,336.089 173.262,335.923 174.5,336C 173.135,334.318 171.635,334.151 170,335.5C 167.833,334 168,332.833 170.5,332C 169.333,331.5 168.5,330.667 168,329.5C 166.913,331.932 166.413,331.598 166.5,328.5C 167.873,328.343 169.207,328.51 170.5,329C 170.167,329.333 169.833,329.667 169.5,330C 171.886,330.284 172.552,331.284 171.5,333C 173.892,333.572 175.892,334.738 177.5,336.5C 178.167,336.333 178.833,336.167 179.5,336C 178.5,335.667 177.5,335.333 176.5,335C 178.007,334.163 178.507,332.996 178,331.5C 176.12,332.93 174.62,332.596 173.5,330.5C 175.424,330.433 177.424,330.1 179.5,329.5C 179.919,328.328 180.585,327.328 181.5,326.5C 181.906,327.557 181.906,328.891 181.5,330.5C 183.39,330.297 184.89,330.963 186,332.5C 186.826,335.793 187.326,339.126 187.5,342.5C 182.281,343.093 181.614,342.093 185.5,339.5C 184.359,338.575 184.359,337.741 185.5,337C 184.646,335.978 183.646,335.145 182.5,334.5C 179.869,336.005 180.203,336.671 183.5,336.5C 183.5,337.5 183.5,338.5 183.5,339.5C 178.939,337.291 177.606,336.958 179.5,338.5C 179.687,340.564 180.187,342.564 181,344.5C 182.965,343.115 184.798,343.282 186.5,345C 185.5,345.333 184.5,345.667 183.5,346C 185.598,346.678 187.598,346.511 189.5,345.5 Z"/></g>
<g><path style="opacity:0.979" fill="#003d2b" d="M 66.5,392.5 C 69.947,390.603 73.2804,388.437 76.5,386C 87.7451,381.076 91.7451,384.576 88.5,396.5C 88.1667,397.167 87.8333,397.833 87.5,398.5C 84.3533,405.461 80.6866,412.127 76.5,418.5C 58.0773,427.481 39.4107,427.815 20.5,419.5C 13.7302,411.294 9.06356,401.961 6.5,391.5C 7.01063,385.91 10.0106,383.743 15.5,385C 21.2774,387.055 26.6108,389.888 31.5,393.5C 34.9567,389.542 38.6233,385.708 42.5,382C 45.6684,379.367 49.0017,379.033 52.5,381C 57.0343,385.199 61.201,389.699 65,394.5C 65.7172,393.956 66.2172,393.289 66.5,392.5 Z"/></g>
<g><path style="opacity:1" fill="#14c264" d="M 88.5,396.5 C 110.177,396.167 131.844,396.5 153.5,397.5C 131.51,398.5 109.51,398.833 87.5,398.5C 87.8333,397.833 88.1667,397.167 88.5,396.5 Z"/></g>
<g><path style="opacity:1" fill="#86ee6d" d="M 441.5,395.5 C 441.5,396.167 441.5,396.833 441.5,397.5C 438.999,397.826 437.832,399.159 438,401.5C 438.837,399.993 440.004,399.493 441.5,400C 440.359,400.741 440.359,401.575 441.5,402.5C 440.855,403.646 440.022,404.646 439,405.5C 438.101,403.673 436.767,402.34 435,401.5C 433.714,402.35 433.881,403.517 435.5,405C 433.699,405.317 433.366,405.984 434.5,407C 432.965,407.496 431.465,407.33 430,406.5C 429.055,406.905 428.388,407.572 428,408.5C 427.581,407.328 426.915,406.328 426,405.5C 425.383,406.449 425.549,407.282 426.5,408C 424.553,407.464 422.553,407.798 420.5,409C 423.742,409.283 424.076,410.117 421.5,411.5C 423.087,413.446 422.754,414.946 420.5,416C 421.517,417.049 421.684,418.216 421,419.5C 420.073,416.648 418.406,414.315 416,412.5C 415.055,412.905 414.388,413.572 414,414.5C 412.561,412.986 411.061,412.653 409.5,413.5C 411,415.167 412.5,416.833 414,418.5C 414.333,418.167 414.667,417.833 415,417.5C 415.12,421.011 413.786,421.345 411,418.5C 410.383,419.449 410.549,420.282 411.5,421C 410.258,421.311 409.258,420.811 408.5,419.5C 405.972,420.498 405.972,421.331 408.5,422C 406.567,422.783 405.067,422.283 404,420.5C 403.667,421.5 403.333,422.5 403,423.5C 402.665,421.497 401.832,419.83 400.5,418.5C 403.097,418.279 403.097,417.779 400.5,417C 401.938,416.781 403.271,416.281 404.5,415.5C 403.092,414.757 401.759,413.923 400.5,413C 402.027,411.632 403.527,411.132 405,411.5C 406.099,414.044 407.265,414.044 408.5,411.5C 406.458,410.497 406.125,409.163 407.5,407.5C 405.288,404.758 403.955,405.258 403.5,409C 403.833,409.333 404.167,409.667 404.5,410C 403.175,409.852 402.008,410.018 401,410.5C 400.667,407.5 400.333,404.5 400,401.5C 399.667,402.167 399.333,402.833 399,403.5C 397.148,401.77 397.314,400.604 399.5,400C 398.167,399.333 398.167,398.667 399.5,398C 397.688,396.373 397.521,394.873 399,393.5C 401.315,394.527 403.648,395.527 406,396.5C 408.184,395.892 410.184,396.559 412,398.5C 412.308,397.692 412.808,397.025 413.5,396.5C 414.167,397.833 414.833,399.167 415.5,400.5C 417.47,397.032 419.636,393.699 422,390.5C 423.188,391.563 423.688,392.897 423.5,394.5C 424.552,394.649 425.552,394.483 426.5,394C 428.959,392.029 431.459,390.196 434,388.5C 434.652,390.723 436.152,391.89 438.5,392C 437.833,393.667 437.167,395.333 436.5,397C 438.044,396.513 439.71,396.013 441.5,395.5 Z"/></g>
<g><path style="opacity:1" fill="#5ddf6a" d="M 441.5,397.5 C 448.225,411.289 454.725,425.289 461,439.5C 464.054,446.23 462.554,451.563 456.5,455.5C 443.25,463.135 428.917,467.135 413.5,467.5C 406.549,468.572 400.715,466.572 396,461.5C 391.995,454.494 388.829,447.161 386.5,439.5C 387.552,439.649 388.552,439.483 389.5,439C 391.691,437.606 393.025,436.106 393.5,434.5C 394.624,435.914 395.624,437.414 396.5,439C 397.167,439.667 397.833,439.667 398.5,439C 397.743,437.488 396.743,436.154 395.5,435C 397.158,434.275 397.658,433.108 397,431.5C 396.282,432.451 395.449,432.617 394.5,432C 396.376,430.983 398.376,430.149 400.5,429.5C 399.147,428.476 398.48,427.143 398.5,425.5C 397.022,425.762 395.689,425.429 394.5,424.5C 398.248,422.99 397.915,421.823 393.5,421C 394.833,420.333 396.167,420.333 397.5,421C 398.594,422.78 399.594,424.614 400.5,426.5C 401.308,426.192 401.975,425.692 402.5,425C 401.745,422.867 400.412,421.2 398.5,420C 399.044,419.283 399.711,418.783 400.5,418.5C 401.832,419.83 402.665,421.497 403,423.5C 403.333,422.5 403.667,421.5 404,420.5C 405.067,422.283 406.567,422.783 408.5,422C 405.972,421.331 405.972,420.498 408.5,419.5C 409.258,420.811 410.258,421.311 411.5,421C 410.549,420.282 410.383,419.449 411,418.5C 413.786,421.345 415.12,421.011 415,417.5C 414.667,417.833 414.333,418.167 414,418.5C 412.5,416.833 411,415.167 409.5,413.5C 411.061,412.653 412.561,412.986 414,414.5C 414.388,413.572 415.055,412.905 416,412.5C 418.406,414.315 420.073,416.648 421,419.5C 421.684,418.216 421.517,417.049 420.5,416C 422.754,414.946 423.087,413.446 421.5,411.5C 424.076,410.117 423.742,409.283 420.5,409C 422.553,407.798 424.553,407.464 426.5,408C 425.549,407.282 425.383,406.449 426,405.5C 426.915,406.328 427.581,407.328 428,408.5C 428.388,407.572 429.055,406.905 430,406.5C 431.465,407.33 432.965,407.496 434.5,407C 433.366,405.984 433.699,405.317 435.5,405C 433.881,403.517 433.714,402.35 435,401.5C 436.767,402.34 438.101,403.673 439,405.5C 440.022,404.646 440.855,403.646 441.5,402.5C 440.359,401.575 440.359,400.741 441.5,400C 440.004,399.493 438.837,399.993 438,401.5C 437.832,399.159 438.999,397.826 441.5,397.5 Z"/></g>
<g><path style="opacity:0.892" fill="#96d566" d="M 163.5,408.5 C 163.5,410.833 163.5,413.167 163.5,415.5C 161.833,415.5 160.167,415.5 158.5,415.5C 158.383,413.516 159.05,411.85 160.5,410.5C 160.192,409.692 159.692,409.025 159,408.5C 158.164,410.842 156.83,412.842 155,414.5C 153.902,413.033 152.402,412.199 150.5,412C 151.833,411.333 153.167,410.667 154.5,410C 152.156,408.815 151.323,406.982 152,404.5C 153.686,407.022 155.019,406.689 156,403.5C 157.585,404.376 158.585,405.709 159,407.5C 159.333,407.167 159.667,406.833 160,406.5C 160.862,408.087 161.529,409.754 162,411.5C 162.232,410.263 162.732,409.263 163.5,408.5 Z"/></g>
<g><path style="opacity:0.992" fill="#03412c" d="M 20.5,421.5 C 39.1496,428.165 57.8163,428.165 76.5,421.5C 77.391,422.11 78.391,422.443 79.5,422.5C 80.2905,423.401 81.2905,424.068 82.5,424.5C 83.1667,424.833 83.8333,425.167 84.5,425.5C 91.0824,429.413 96.7491,434.413 101.5,440.5C 100.836,443.015 99.5026,445.181 97.5,447C 97.8333,447.333 98.1667,447.667 98.5,448C 97.4232,448.47 96.4232,448.303 95.5,447.5C 95.317,445.064 95.9837,442.897 97.5,441C 97.3568,437.285 95.6901,436.785 92.5,439.5C 91.6906,441.071 91.3573,442.738 91.5,444.5C 90.1667,444.5 88.8333,444.5 87.5,444.5C 87.33,445.822 87.6634,446.989 88.5,448C 86.5665,448.783 85.0665,448.283 84,446.5C 82.2839,446.411 80.4506,446.744 78.5,447.5C 77.1397,445.152 75.4731,444.985 73.5,447C 76.6677,447.582 77.001,448.582 74.5,450C 76.5689,450.324 76.9023,451.158 75.5,452.5C 76.365,453.583 77.365,453.749 78.5,453C 77.1814,448.156 78.8481,447.489 83.5,451C 82.8333,451.333 82.1667,451.667 81.5,452C 83.1946,453.732 84.528,455.732 85.5,458C 85.0946,458.945 84.428,459.612 83.5,460C 84.1667,460.333 84.8333,460.667 85.5,461C 84.2068,461.49 82.8734,461.657 81.5,461.5C 81.6678,458.316 80.3345,457.816 77.5,460C 78.448,460.483 79.448,460.649 80.5,460.5C 80.7947,462.735 80.4614,464.735 79.5,466.5C 54.2293,453.182 27.5627,443.182 -0.5,436.5C -0.5,435.833 -0.5,435.167 -0.5,434.5C 5.68981,428.903 12.6898,424.569 20.5,421.5 Z"/></g>
<g><path style="opacity:1" fill="#4cd869" d="M 82.5,424.5 C 102.66,423.503 122.993,423.17 143.5,423.5C 143.5,424.167 143.167,424.5 142.5,424.5C 122.993,424.17 103.659,424.503 84.5,425.5C 83.8333,425.167 83.1667,424.833 82.5,424.5 Z"/></g>
<g><path style="opacity:1" fill="#07ab5a" d="M 76.5,418.5 C 76.5,419.5 76.5,420.5 76.5,421.5C 57.8163,428.165 39.1496,428.165 20.5,421.5C 20.5,420.833 20.5,420.167 20.5,419.5C 39.4107,427.815 58.0773,427.481 76.5,418.5 Z"/></g>
<g><path style="opacity:1" fill="#96f26e" d="M 84.5,425.5 C 103.659,424.503 122.993,424.17 142.5,424.5C 143.263,427.141 143.43,429.808 143,432.5C 142.346,431.304 141.846,431.304 141.5,432.5C 142.167,433.167 142.833,433.833 143.5,434.5C 142.152,434.45 140.652,434.783 139,435.5C 136.884,439.397 135.05,443.397 133.5,447.5C 124.5,447.5 115.5,447.5 106.5,447.5C 105.066,444.953 103.4,442.619 101.5,440.5C 96.7491,434.413 91.0824,429.413 84.5,425.5 Z"/></g>
<g><path style="opacity:1" fill="#95e26a" d="M 143.5,423.5 C 144.323,426.977 144.823,430.644 145,434.5C 145.774,436.939 147.274,438.773 149.5,440C 174.167,440.333 198.833,440.667 223.5,441C 198.5,441.333 173.5,441.667 148.5,442C 146.787,443.378 145.453,445.045 144.5,447C 140.848,447.499 137.182,447.665 133.5,447.5C 135.05,443.397 136.884,439.397 139,435.5C 140.652,434.783 142.152,434.45 143.5,434.5C 142.833,433.833 142.167,433.167 141.5,432.5C 141.846,431.304 142.346,431.304 143,432.5C 143.43,429.808 143.263,427.141 142.5,424.5C 143.167,424.5 143.5,424.167 143.5,423.5 Z"/></g>
<g><path style="opacity:0.986" fill="#96f36e" d="M -0.5,436.5 C 27.5627,443.182 54.2293,453.182 79.5,466.5C 79.8417,467.338 80.5084,467.672 81.5,467.5C 86.9891,471.47 92.6558,475.304 98.5,479C 103.669,483.337 108.669,487.837 113.5,492.5C 114.833,495.493 116.833,497.827 119.5,499.5C 125.213,516.26 133.047,531.927 143,546.5C 150.059,553.224 156.726,560.224 163,567.5C 168.086,577.592 171.253,588.259 172.5,599.5C 155.833,599.5 139.167,599.5 122.5,599.5C 105.18,585.522 91.6798,568.522 82,548.5C 77.3786,538.107 72.8786,527.774 68.5,517.5C 67.9751,513.467 66.6418,509.8 64.5,506.5C 63.6743,503.515 62.341,500.849 60.5,498.5C 59.2583,494.345 57.2583,490.678 54.5,487.5C 41.2182,466.905 22.8849,452.571 -0.5,444.5C -0.5,441.833 -0.5,439.167 -0.5,436.5 Z"/></g>
<g><path style="opacity:1" fill="#08be62" d="M 158.5,415.5 C 160.167,415.5 161.833,415.5 163.5,415.5C 184.925,415.022 206.258,415.522 227.5,417C 228.701,417.903 229.535,419.069 230,420.5C 230.667,425.5 230.667,430.5 230,435.5C 228.833,438 227,439.833 224.5,441C 226.624,442.122 228.457,443.622 230,445.5C 230.499,449.821 230.666,454.154 230.5,458.5C 228.955,457.77 228.122,456.437 228,454.5C 227.027,456.392 226.36,458.392 226,460.5C 223.806,462.365 221.64,464.032 219.5,465.5C 196.833,465.5 174.167,465.5 151.5,465.5C 145.636,463.794 143.302,459.794 144.5,453.5C 144.5,452.167 144.5,450.833 144.5,449.5C 141.5,449.5 138.5,449.5 135.5,449.5C 126.167,449.5 116.833,449.5 107.5,449.5C 107.167,448.833 106.833,448.167 106.5,447.5C 115.5,447.5 124.5,447.5 133.5,447.5C 137.182,447.665 140.848,447.499 144.5,447C 145.453,445.045 146.787,443.378 148.5,442C 173.5,441.667 198.5,441.333 223.5,441C 198.833,440.667 174.167,440.333 149.5,440C 147.274,438.773 145.774,436.939 145,434.5C 144.823,430.644 144.323,426.977 143.5,423.5C 122.993,423.17 102.66,423.503 82.5,424.5C 81.2905,424.068 80.2905,423.401 79.5,422.5C 101.177,422.833 122.844,422.5 144.5,421.5C 147.585,416.027 152.252,414.027 158.5,415.5 Z"/></g>
<g><path style="opacity:0.987" fill="#003e2b" d="M -0.5,444.5 C 22.8849,452.571 41.2182,466.905 54.5,487.5C 53.2347,488.479 51.9014,489.479 50.5,490.5C 50.7093,491.086 51.0426,491.586 51.5,492C 50.7734,493.399 50.2734,494.899 50,496.5C 46.7927,493.85 46.2927,494.016 48.5,497C 47.1667,498 47.1667,499 48.5,500C 47.8333,500.667 47.1667,501.333 46.5,502C 48.0009,503.252 49.6675,504.252 51.5,505C 50.5,508.333 49.5,508.333 48.5,505C 46.4079,504.149 44.4079,503.482 42.5,503C 44.4905,505.386 46.4905,507.053 48.5,508C 47.7471,509.487 46.9138,509.654 46,508.5C 46.1484,509.825 45.9817,510.992 45.5,512C 46.7604,513.113 47.927,513.28 49,512.5C 49.4922,513.549 49.3256,514.549 48.5,515.5C 49.2739,516.711 50.1072,516.711 51,515.5C 51.7172,516.044 52.2172,516.711 52.5,517.5C 36.4965,517.667 20.4965,517.5 4.5,517C 2.75251,516.648 1.08584,516.148 -0.5,515.5C -0.5,491.833 -0.5,468.167 -0.5,444.5 Z"/></g>
<g><path style="opacity:1" fill="#3b8445" d="M 101.5,440.5 C 103.4,442.619 105.066,444.953 106.5,447.5C 106.833,448.167 107.167,448.833 107.5,449.5C 111.338,457.018 113.338,465.018 113.5,473.5C 113.833,474.167 114.167,474.833 114.5,475.5C 113.521,478.625 113.187,481.958 113.5,485.5C 113.5,487.833 113.5,490.167 113.5,492.5C 108.669,487.837 103.669,483.337 98.5,479C 92.6558,475.304 86.9891,471.47 81.5,467.5C 81.4142,466.504 81.7476,465.671 82.5,465C 84.1667,464.667 85.8333,464.333 87.5,464C 86.1048,461.925 86.4381,460.092 88.5,458.5C 87.9598,457.252 87.2931,456.085 86.5,455C 87.8141,454.015 88.8141,452.848 89.5,451.5C 89.6098,453.804 90.6098,456.137 92.5,458.5C 94.4468,456.724 94.7801,454.724 93.5,452.5C 92.6043,453.506 91.9377,453.506 91.5,452.5C 92.3202,450.889 93.6536,450.222 95.5,450.5C 95.5,449.5 95.5,448.5 95.5,447.5C 96.4232,448.303 97.4232,448.47 98.5,448C 98.1667,447.667 97.8333,447.333 97.5,447C 99.5026,445.181 100.836,443.015 101.5,440.5 Z"/></g>
<g><path style="opacity:1" fill="#81eb6d" d="M 374.5,428.5 C 375.256,437.525 375.256,446.525 374.5,455.5C 373.883,455.611 373.383,455.944 373,456.5C 369.98,455.368 367.147,453.868 364.5,452C 364.833,451.667 365.167,451.333 365.5,451C 364.552,450.517 363.552,450.351 362.5,450.5C 362.252,453.44 363.252,455.44 365.5,456.5C 365.333,456.833 365.167,457.167 365,457.5C 363.029,455.9 361.196,455.734 359.5,457C 362.493,457.427 362.993,458.594 361,460.5C 360.577,459.044 359.744,458.544 358.5,459C 359.198,459.971 359.198,461.137 358.5,462.5C 358.667,463.167 358.833,463.833 359,464.5C 360.351,463.039 361.851,461.706 363.5,460.5C 363.736,461.247 364.07,462.08 364.5,463C 363.5,463.333 362.5,463.667 361.5,464C 361.619,465.281 361.119,466.448 360,467.5C 358.637,465.216 357.137,465.049 355.5,467C 357.469,468.926 359.802,470.092 362.5,470.5C 355.205,471.861 347.871,471.527 340.5,469.5C 340.631,468.761 340.464,468.094 340,467.5C 339.107,468.711 338.274,468.711 337.5,467.5C 338.833,466.167 338.833,464.833 337.5,463.5C 338.376,462.749 339.376,462.249 340.5,462C 340,461.5 339.5,461 339,460.5C 337.186,461.76 335.353,461.76 333.5,460.5C 334.228,456.698 335.394,453.031 337,449.5C 338.241,450.938 338.741,452.438 338.5,454C 336.864,455.434 335.864,457.267 335.5,459.5C 335.833,459.833 336.167,460.167 336.5,460.5C 337.382,459.24 338.382,458.074 339.5,457C 339.167,456.667 338.833,456.333 338.5,456C 341.264,455.468 343.93,454.634 346.5,453.5C 346.998,452.397 347.331,451.397 347.5,450.5C 348.192,451.025 348.692,451.692 349,452.5C 349.916,448.221 348.083,446.388 343.5,447C 342.549,446.282 342.383,445.449 343,444.5C 344.667,444.5 346.333,444.5 348,444.5C 348.36,442.579 349.194,440.912 350.5,439.5C 352.343,439.755 354.343,439.922 356.5,440C 356.167,440.333 355.833,440.667 355.5,441C 357.886,441.284 358.552,442.284 357.5,444C 360.211,445.805 362.878,445.805 365.5,444C 362.997,443.871 360.997,442.871 359.5,441C 361.432,440.862 363.266,441.362 365,442.5C 366.847,436.517 367.847,436.184 368,441.5C 368.667,440.167 369.333,440.167 370,441.5C 372.259,438.342 371.426,436.342 367.5,435.5C 368.376,434.749 369.376,434.249 370.5,434C 369.5,433 368.5,432 367.5,431C 368.108,430.13 368.941,429.63 370,429.5C 371.762,429.944 371.595,430.444 369.5,431C 371.955,431.706 373.622,430.873 374.5,428.5 Z"/></g>
<g><path style="opacity:0.089" fill="#00be62" d="M 531.5,447.5 C 531.5,479.167 531.5,510.833 531.5,542.5C 521.801,557.036 510.135,569.87 496.5,581C 487.273,587.439 477.94,593.605 468.5,599.5C 459.167,599.5 449.833,599.5 440.5,599.5C 441.743,589.483 443.243,579.483 445,569.5C 447.445,557.608 452.779,547.274 461,538.5C 469.419,532.083 476.419,524.416 482,515.5C 488.099,504.637 493.099,493.303 497,481.5C 505.712,467.288 517.212,455.955 531.5,447.5 Z"/></g>
<g><path style="opacity:1" fill="#96eb6c" d="M 107.5,449.5 C 116.833,449.5 126.167,449.5 135.5,449.5C 136.658,450.95 136.158,451.95 134,452.5C 133.506,454.134 133.34,455.801 133.5,457.5C 134.986,460.371 133.986,461.705 130.5,461.5C 130.548,464.292 129.215,466.125 126.5,467C 127.308,467.308 127.975,467.808 128.5,468.5C 126.527,469.331 124.527,469.498 122.5,469C 123.733,470.667 125.067,472.167 126.5,473.5C 122.167,473.5 117.833,473.5 113.5,473.5C 113.338,465.018 111.338,457.018 107.5,449.5 Z"/></g>
<g><path style="opacity:1" fill="#115132" d="M 95.5,447.5 C 95.5,448.5 95.5,449.5 95.5,450.5C 93.6536,450.222 92.3202,450.889 91.5,452.5C 91.9377,453.506 92.6043,453.506 93.5,452.5C 94.7801,454.724 94.4468,456.724 92.5,458.5C 90.6098,456.137 89.6098,453.804 89.5,451.5C 89.9954,449.518 90.4954,447.518 91,445.5C 91.3333,445.833 91.6667,446.167 92,446.5C 92.2189,445.062 92.7189,443.729 93.5,442.5C 92.9889,444.419 93.6556,446.085 95.5,447.5 Z"/></g>
<g><path style="opacity:1" fill="#96cd64" d="M 135.5,449.5 C 138.5,449.5 141.5,449.5 144.5,449.5C 144.5,450.833 144.5,452.167 144.5,453.5C 142.921,457.264 141.421,457.264 140,453.5C 138.303,455.632 136.136,456.965 133.5,457.5C 133.34,455.801 133.506,454.134 134,452.5C 136.158,451.95 136.658,450.95 135.5,449.5 Z"/></g>
<g><path style="opacity:1" fill="#94b45d" d="M 144.5,453.5 C 143.302,459.794 145.636,463.794 151.5,465.5C 151.5,465.833 151.5,466.167 151.5,466.5C 147.623,467.227 145.29,469.561 144.5,473.5C 139.5,473.5 134.5,473.5 129.5,473.5C 128.5,473.5 127.5,473.5 126.5,473.5C 125.067,472.167 123.733,470.667 122.5,469C 124.527,469.498 126.527,469.331 128.5,468.5C 127.975,467.808 127.308,467.308 126.5,467C 129.215,466.125 130.548,464.292 130.5,461.5C 133.986,461.705 134.986,460.371 133.5,457.5C 136.136,456.965 138.303,455.632 140,453.5C 141.421,457.264 142.921,457.264 144.5,453.5 Z"/></g>
<g><path style="opacity:0.999" fill="#63e16a" d="M 374.5,455.5 C 375.848,463.84 372.515,468.84 364.5,470.5C 363.833,470.5 363.167,470.5 362.5,470.5C 359.802,470.092 357.469,468.926 355.5,467C 357.137,465.049 358.637,465.216 360,467.5C 361.119,466.448 361.619,465.281 361.5,464C 362.5,463.667 363.5,463.333 364.5,463C 364.07,462.08 363.736,461.247 363.5,460.5C 361.851,461.706 360.351,463.039 359,464.5C 358.833,463.833 358.667,463.167 358.5,462.5C 359.198,461.137 359.198,459.971 358.5,459C 359.744,458.544 360.577,459.044 361,460.5C 362.993,458.594 362.493,457.427 359.5,457C 361.196,455.734 363.029,455.9 365,457.5C 365.167,457.167 365.333,456.833 365.5,456.5C 363.252,455.44 362.252,453.44 362.5,450.5C 363.552,450.351 364.552,450.517 365.5,451C 365.167,451.333 364.833,451.667 364.5,452C 367.147,453.868 369.98,455.368 373,456.5C 373.383,455.944 373.883,455.611 374.5,455.5 Z"/></g>
<g><path style="opacity:0.982" fill="#fdc6ba" d="M 456.5,455.5 C 459.088,459.674 461.421,464.007 463.5,468.5C 454.035,477.464 444.702,486.631 435.5,496C 434.167,496.667 432.833,496.667 431.5,496C 426.599,493.536 421.599,491.369 416.5,489.5C 417.49,486.849 418.49,484.183 419.5,481.5C 417.488,476.812 415.488,472.146 413.5,467.5C 428.917,467.135 443.25,463.135 456.5,455.5 Z"/></g>
<g><path style="opacity:1" fill="#286c3c" d="M 95.5,447.5 C 93.6556,446.085 92.9889,444.419 93.5,442.5C 92.7189,443.729 92.2189,445.062 92,446.5C 91.6667,446.167 91.3333,445.833 91,445.5C 90.4954,447.518 89.9954,449.518 89.5,451.5C 88.8141,452.848 87.8141,454.015 86.5,455C 87.2931,456.085 87.9598,457.252 88.5,458.5C 86.4381,460.092 86.1048,461.925 87.5,464C 85.8333,464.333 84.1667,464.667 82.5,465C 81.7476,465.671 81.4142,466.504 81.5,467.5C 80.5084,467.672 79.8417,467.338 79.5,466.5C 80.4614,464.735 80.7947,462.735 80.5,460.5C 79.448,460.649 78.448,460.483 77.5,460C 80.3345,457.816 81.6678,458.316 81.5,461.5C 82.8734,461.657 84.2068,461.49 85.5,461C 84.8333,460.667 84.1667,460.333 83.5,460C 84.428,459.612 85.0946,458.945 85.5,458C 84.528,455.732 83.1946,453.732 81.5,452C 82.1667,451.667 82.8333,451.333 83.5,451C 78.8481,447.489 77.1814,448.156 78.5,453C 77.365,453.749 76.365,453.583 75.5,452.5C 76.9023,451.158 76.5689,450.324 74.5,450C 77.001,448.582 76.6677,447.582 73.5,447C 75.4731,444.985 77.1397,445.152 78.5,447.5C 80.4506,446.744 82.2839,446.411 84,446.5C 85.0665,448.283 86.5665,448.783 88.5,448C 87.6634,446.989 87.33,445.822 87.5,444.5C 88.8333,444.5 90.1667,444.5 91.5,444.5C 91.3573,442.738 91.6906,441.071 92.5,439.5C 95.6901,436.785 97.3568,437.285 97.5,441C 95.9837,442.897 95.317,445.064 95.5,447.5 Z"/></g>
<g><path style="opacity:0.985" fill="#fdc6ba" d="M 320.5,464.5 C 327.063,466.576 333.729,468.243 340.5,469.5C 347.871,471.527 355.205,471.861 362.5,470.5C 363.167,470.5 363.833,470.5 364.5,470.5C 363.911,477.485 363.578,484.485 363.5,491.5C 350.623,494.928 337.789,498.595 325,502.5C 320.581,497.31 316.414,491.977 312.5,486.5C 314.508,484.732 316.674,483.066 319,481.5C 320.131,475.888 320.631,470.221 320.5,464.5 Z"/></g>
<g><path style="opacity:1" fill="#69e06a" d="M 151.5,465.5 C 174.167,465.5 196.833,465.5 219.5,465.5C 220.873,465.343 222.207,465.51 223.5,466C 221.292,466.191 219.292,466.691 217.5,467.5C 215.167,467.5 212.833,467.5 210.5,467.5C 190.66,467.83 170.993,467.497 151.5,466.5C 151.5,466.167 151.5,465.833 151.5,465.5 Z"/></g>
<g><path style="opacity:0.949" fill="#023e2c" d="M 463.5,468.5 C 466.656,473.472 469.823,478.472 473,483.5C 474.301,485.402 474.968,487.402 475,489.5C 471.629,491.7 468.129,493.7 464.5,495.5C 463.185,493.684 461.685,492.017 460,490.5C 451.55,500.455 441.717,508.622 430.5,515C 419.88,519.857 413.547,516.523 411.5,505C 412.339,499.446 414.006,494.28 416.5,489.5C 421.599,491.369 426.599,493.536 431.5,496C 432.833,496.667 434.167,496.667 435.5,496C 444.702,486.631 454.035,477.464 463.5,468.5 Z"/></g>
<g><path style="opacity:1" fill="#46b35e" d="M 113.5,473.5 C 117.833,473.5 122.167,473.5 126.5,473.5C 127.5,473.5 128.5,473.5 129.5,473.5C 128.833,474.167 128.167,474.833 127.5,475.5C 125.331,474.918 122.998,474.918 120.5,475.5C 118.5,475.5 116.5,475.5 114.5,475.5C 114.167,474.833 113.833,474.167 113.5,473.5 Z"/></g>
<g><path style="opacity:1" fill="#5b9e58" d="M 129.5,473.5 C 134.5,473.5 139.5,473.5 144.5,473.5C 144.5,474.167 144.5,474.833 144.5,475.5C 138.833,475.5 133.167,475.5 127.5,475.5C 128.167,474.833 128.833,474.167 129.5,473.5 Z"/></g>
<g><path style="opacity:1" fill="#95b45d" d="M 127.5,475.5 C 133.167,475.5 138.833,475.5 144.5,475.5C 143.175,482.204 145.175,487.537 150.5,491.5C 147.328,493.332 145.328,495.999 144.5,499.5C 136.167,499.5 127.833,499.5 119.5,499.5C 116.833,497.827 114.833,495.493 113.5,492.5C 113.5,490.167 113.5,487.833 113.5,485.5C 115.103,486.677 116.436,486.511 117.5,485C 116.167,484.333 115.167,483.333 114.5,482C 116.557,481.695 118.557,481.695 120.5,482C 119.313,480.981 118.313,479.814 117.5,478.5C 118.993,477.859 119.993,476.859 120.5,475.5C 122.998,474.918 125.331,474.918 127.5,475.5 Z"/></g>
<g><path style="opacity:1" fill="#96df69" d="M 114.5,475.5 C 116.5,475.5 118.5,475.5 120.5,475.5C 119.993,476.859 118.993,477.859 117.5,478.5C 118.313,479.814 119.313,480.981 120.5,482C 118.557,481.695 116.557,481.695 114.5,482C 115.167,483.333 116.167,484.333 117.5,485C 116.436,486.511 115.103,486.677 113.5,485.5C 113.187,481.958 113.521,478.625 114.5,475.5 Z"/></g>
<g><path style="opacity:1" fill="#14b35f" d="M 210.5,467.5 C 212.833,467.5 215.167,467.5 217.5,467.5C 218.239,467.369 218.906,467.536 219.5,468C 217.363,470.354 216.363,473.188 216.5,476.5C 221.275,476.789 221.775,478.455 218,481.5C 217.751,480.376 217.251,479.376 216.5,478.5C 214.823,480.76 212.657,482.427 210,483.5C 209.517,484.448 209.351,485.448 209.5,486.5C 208.5,486.5 207.5,486.5 206.5,486.5C 206.5,487.833 206.5,489.167 206.5,490.5C 205.833,490.5 205.167,490.5 204.5,490.5C 201.5,490.5 198.5,490.5 195.5,490.5C 196.171,489.153 196.171,487.986 195.5,487C 196.744,486.544 197.577,487.044 198,488.5C 200.734,487.638 200.901,486.805 198.5,486C 198.833,485 199.167,484 199.5,483C 196.349,480.159 196.849,478.326 201,477.5C 201.718,478.451 202.551,478.617 203.5,478C 203.384,476.732 203.051,475.398 202.5,474C 204.225,474.409 205.892,474.242 207.5,473.5C 209.559,472.049 210.559,470.049 210.5,467.5 Z"/></g>
<g><path style="opacity:0.954" fill="#023e2c" d="M 312.5,486.5 C 316.414,491.977 320.581,497.31 325,502.5C 337.789,498.595 350.623,494.928 363.5,491.5C 363.644,499.51 363.977,507.51 364.5,515.5C 359.833,515.5 355.167,515.5 350.5,515.5C 350.949,513.023 350.283,511.023 348.5,509.5C 333.869,514.996 318.869,516.496 303.5,514C 298.794,509.671 297.627,504.505 300,498.5C 303.376,493.623 307.543,489.623 312.5,486.5 Z"/></g>
<g><path style="opacity:1" fill="#7ee86c" d="M 195.5,490.5 C 198.5,490.5 201.5,490.5 204.5,490.5C 204.167,491.167 203.833,491.833 203.5,492.5C 186.154,492.833 168.821,492.5 151.5,491.5C 166.152,490.501 180.818,490.167 195.5,490.5 Z"/></g>
<g><path style="opacity:1" fill="#8eb15c" d="M 204.5,490.5 C 205.167,490.5 205.833,490.5 206.5,490.5C 211.875,490.172 217.208,490.505 222.5,491.5C 216.537,492.496 210.537,492.829 204.5,492.5C 204.167,492.5 203.833,492.5 203.5,492.5C 203.833,491.833 204.167,491.167 204.5,490.5 Z"/></g>
<g><path style="opacity:0.969" fill="#03bd62" d="M 151.5,466.5 C 170.993,467.497 190.66,467.83 210.5,467.5C 210.559,470.049 209.559,472.049 207.5,473.5C 205.892,474.242 204.225,474.409 202.5,474C 203.051,475.398 203.384,476.732 203.5,478C 202.551,478.617 201.718,478.451 201,477.5C 196.849,478.326 196.349,480.159 199.5,483C 199.167,484 198.833,485 198.5,486C 200.901,486.805 200.734,487.638 198,488.5C 197.577,487.044 196.744,486.544 195.5,487C 196.171,487.986 196.171,489.153 195.5,490.5C 180.818,490.167 166.152,490.501 151.5,491.5C 168.821,492.5 186.154,492.833 203.5,492.5C 203.833,492.5 204.167,492.5 204.5,492.5C 204.631,493.239 204.464,493.906 204,494.5C 202.287,494.62 200.454,494.453 198.5,494C 199.823,494.816 200.489,495.983 200.5,497.5C 199.849,498.091 199.182,498.757 198.5,499.5C 197.289,498.726 197.289,497.893 198.5,497C 196.027,494.898 195.36,495.232 196.5,498C 195.978,498.95 195.311,499.784 194.5,500.5C 195.167,500.833 195.833,501.167 196.5,501.5C 195.349,502.731 194.183,502.731 193,501.5C 192.77,505.213 191.603,505.88 189.5,503.5C 188.914,503.709 188.414,504.043 188,504.5C 185.734,500.666 185.067,500.999 186,505.5C 183.507,504.054 181.673,504.721 180.5,507.5C 179.549,506.674 178.549,506.508 177.5,507C 179.692,510.674 182.025,514.174 184.5,517.5C 172.424,517.938 160.424,517.438 148.5,516C 143.811,511.345 142.478,505.845 144.5,499.5C 145.328,495.999 147.328,493.332 150.5,491.5C 145.175,487.537 143.175,482.204 144.5,475.5C 144.5,474.833 144.5,474.167 144.5,473.5C 145.29,469.561 147.623,467.227 151.5,466.5 Z"/></g>
<g><path style="opacity:1" fill="#3b9556" d="M 230.5,458.5 C 229.857,461.988 227.857,464.488 224.5,466C 227,467.167 228.833,469 230,471.5C 230.667,476.5 230.667,481.5 230,486.5C 229.027,488.64 227.527,490.307 225.5,491.5C 227.527,492.693 229.027,494.36 230,496.5C 230.667,501.5 230.667,506.5 230,511.5C 228.809,514.534 226.642,516.201 223.5,516.5C 211.829,516.667 200.162,516.5 188.5,516C 190.246,515.529 191.913,514.862 193.5,514C 192.207,513.51 190.873,513.343 189.5,513.5C 189.354,511.058 190.187,510.391 192,511.5C 194.096,510.285 193.929,509.451 191.5,509C 192.949,507.883 194.616,507.216 196.5,507C 196.167,506.667 195.833,506.333 195.5,506C 197.679,504.152 199.513,501.985 201,499.5C 201.451,501.929 202.285,502.096 203.5,500C 202.88,497.898 201.88,497.065 200.5,497.5C 200.489,495.983 199.823,494.816 198.5,494C 200.454,494.453 202.287,494.62 204,494.5C 204.464,493.906 204.631,493.239 204.5,492.5C 210.537,492.829 216.537,492.496 222.5,491.5C 217.208,490.505 211.875,490.172 206.5,490.5C 206.5,489.167 206.5,487.833 206.5,486.5C 207.5,486.5 208.5,486.5 209.5,486.5C 209.351,485.448 209.517,484.448 210,483.5C 212.657,482.427 214.823,480.76 216.5,478.5C 217.251,479.376 217.751,480.376 218,481.5C 221.775,478.455 221.275,476.789 216.5,476.5C 216.363,473.188 217.363,470.354 219.5,468C 218.906,467.536 218.239,467.369 217.5,467.5C 219.292,466.691 221.292,466.191 223.5,466C 222.207,465.51 220.873,465.343 219.5,465.5C 221.64,464.032 223.806,462.365 226,460.5C 226.36,458.392 227.027,456.392 228,454.5C 228.122,456.437 228.955,457.77 230.5,458.5 Z"/></g>
<g><path style="opacity:1" fill="#378043" d="M 60.5,498.5 C 62.341,500.849 63.6743,503.515 64.5,506.5C 63.5041,506.586 62.6708,506.252 62,505.5C 61.3333,508.167 60.6667,508.167 60,505.5C 58.1667,508.333 56.6667,508.167 55.5,505C 58.8215,504.072 60.4881,501.905 60.5,498.5 Z"/></g>
<g><path style="opacity:1" fill="#0c4b30" d="M 54.5,487.5 C 57.2583,490.678 59.2583,494.345 60.5,498.5C 60.4881,501.905 58.8215,504.072 55.5,505C 56.6667,508.167 58.1667,508.333 60,505.5C 60.6667,508.167 61.3333,508.167 62,505.5C 62.6708,506.252 63.5041,506.586 64.5,506.5C 63.4638,509.194 61.4638,510.694 58.5,511C 59.3366,512.011 59.67,513.178 59.5,514.5C 62.5983,514.413 62.9316,514.913 60.5,516C 61.056,516.383 61.3893,516.883 61.5,517.5C 58.5,517.5 55.5,517.5 52.5,517.5C 52.2172,516.711 51.7172,516.044 51,515.5C 50.1072,516.711 49.2739,516.711 48.5,515.5C 49.3256,514.549 49.4922,513.549 49,512.5C 47.927,513.28 46.7604,513.113 45.5,512C 45.9817,510.992 46.1484,509.825 46,508.5C 46.9138,509.654 47.7471,509.487 48.5,508C 46.4905,507.053 44.4905,505.386 42.5,503C 44.4079,503.482 46.4079,504.149 48.5,505C 49.5,508.333 50.5,508.333 51.5,505C 49.6675,504.252 48.0009,503.252 46.5,502C 47.1667,501.333 47.8333,500.667 48.5,500C 47.1667,499 47.1667,498 48.5,497C 46.2927,494.016 46.7927,493.85 50,496.5C 50.2734,494.899 50.7734,493.399 51.5,492C 51.0426,491.586 50.7093,491.086 50.5,490.5C 51.9014,489.479 53.2347,488.479 54.5,487.5 Z"/></g>
<g><path style="opacity:1" fill="#21a95c" d="M 200.5,497.5 C 201.88,497.065 202.88,497.898 203.5,500C 202.285,502.096 201.451,501.929 201,499.5C 199.513,501.985 197.679,504.152 195.5,506C 195.833,506.333 196.167,506.667 196.5,507C 194.616,507.216 192.949,507.883 191.5,509C 193.929,509.451 194.096,510.285 192,511.5C 190.187,510.391 189.354,511.058 189.5,513.5C 190.873,513.343 192.207,513.51 193.5,514C 191.913,514.862 190.246,515.529 188.5,516C 200.162,516.5 211.829,516.667 223.5,516.5C 210.677,517.495 197.677,517.829 184.5,517.5C 182.025,514.174 179.692,510.674 177.5,507C 178.549,506.508 179.549,506.674 180.5,507.5C 181.673,504.721 183.507,504.054 186,505.5C 185.067,500.999 185.734,500.666 188,504.5C 188.414,504.043 188.914,503.709 189.5,503.5C 191.603,505.88 192.77,505.213 193,501.5C 194.183,502.731 195.349,502.731 196.5,501.5C 195.833,501.167 195.167,500.833 194.5,500.5C 195.311,499.784 195.978,498.95 196.5,498C 195.36,495.232 196.027,494.898 198.5,497C 197.289,497.893 197.289,498.726 198.5,499.5C 199.182,498.757 199.849,498.091 200.5,497.5 Z"/></g>
<g><path style="opacity:1" fill="#2d733f" d="M 64.5,506.5 C 66.6418,509.8 67.9751,513.467 68.5,517.5C 66.1667,517.5 63.8333,517.5 61.5,517.5C 61.3893,516.883 61.056,516.383 60.5,516C 62.9316,514.913 62.5983,514.413 59.5,514.5C 59.67,513.178 59.3366,512.011 58.5,511C 61.4638,510.694 63.4638,509.194 64.5,506.5 Z"/></g>
</svg>
